<svg width="18" height="20" viewBox="0 0 18 20" fill="none" xmlns="http://www.w3.org/2000/svg">
<path d="M15.5618 6.30874L15.4552 6.98216L15.5618 6.30874ZM11.7834 2.53031L11.11 2.63697V2.63697L11.7834 2.53031ZM2.69206 18.2239L3.09283 17.6723L2.69206 18.2239ZM1.68646 17.2183L2.23807 16.8175L1.68646 17.2183ZM16.3139 17.2183L15.7623 16.8175L16.3139 17.2183ZM15.3083 18.2239L14.9075 17.6723L15.3083 18.2239ZM15.3083 1.77826L15.7091 1.22666L15.3083 1.77826ZM16.3139 2.78386L16.8655 2.3831L16.3139 2.78386ZM2.69206 1.77826L3.09283 2.32986L2.69206 1.77826ZM1.68646 2.78386L2.23807 3.18462L1.68646 2.78386ZM11.7274 0.936455L11.7508 0.255036L11.7274 0.936455ZM17.1557 6.3647L17.8371 6.34136L17.1557 6.3647ZM6.2729 10.2283C5.89635 10.2283 5.59109 10.5336 5.59109 10.9102C5.59109 11.2867 5.89635 11.592 6.2729 11.592V10.2283ZM11.7274 11.592C12.104 11.592 12.4093 11.2867 12.4093 10.9102C12.4093 10.5336 12.104 10.2283 11.7274 10.2283V11.592ZM8.31836 13.6374C8.31836 14.014 8.62362 14.3192 9.00018 14.3192C9.37673 14.3192 9.682 14.014 9.682 13.6374H8.31836ZM9.682 8.18288C9.682 7.80633 9.37673 7.50107 9.00018 7.50107C8.62362 7.50107 8.31836 7.80633 8.31836 8.18288H9.682ZM15.6685 5.63532C14.0153 5.37347 12.7187 4.07687 12.4568 2.42365L11.11 2.63697C11.4642 4.87368 13.2185 6.6279 15.4552 6.98216L15.6685 5.63532ZM16.5002 9.09197V10.9102H17.8638V9.09197H16.5002ZM1.50018 10.9102V9.09197H0.136541V10.9102H1.50018ZM9.00018 18.4102C7.28057 18.4102 6.04563 18.4092 5.08931 18.3056C4.14575 18.2034 3.55465 18.0078 3.09283 17.6723L2.2913 18.7755C3.02432 19.308 3.88285 19.5465 4.94243 19.6613C5.98925 19.7747 7.31094 19.7738 9.00018 19.7738V18.4102ZM0.136541 10.9102C0.136541 12.5994 0.135605 13.9211 0.249021 14.9679C0.363819 16.0275 0.60229 16.886 1.13486 17.619L2.23807 16.8175C1.90253 16.3557 1.70695 15.7646 1.60472 14.821C1.50111 13.8647 1.50018 12.6298 1.50018 10.9102H0.136541ZM3.09283 17.6723C2.76482 17.434 2.47637 17.1455 2.23807 16.8175L1.13486 17.619C1.45728 18.0628 1.84753 18.4531 2.2913 18.7755L3.09283 17.6723ZM16.5002 10.9102C16.5002 12.6298 16.4992 13.8647 16.3956 14.821C16.2934 15.7646 16.0978 16.3557 15.7623 16.8175L16.8655 17.619C17.3981 16.886 17.6365 16.0275 17.7513 14.9679C17.8647 13.9211 17.8638 12.5994 17.8638 10.9102H16.5002ZM9.00018 19.7738C10.6894 19.7738 12.0111 19.7747 13.0579 19.6613C14.1175 19.5465 14.976 19.308 15.7091 18.7755L14.9075 17.6723C14.4457 18.0078 13.8546 18.2034 12.911 18.3056C11.9547 18.4092 10.7198 18.4102 9.00018 18.4102V19.7738ZM15.7623 16.8175C15.524 17.1455 15.2355 17.434 14.9075 17.6723L15.7091 18.7755C16.1528 18.4531 16.5431 18.0628 16.8655 17.619L15.7623 16.8175ZM14.9075 2.32986C15.2355 2.56817 15.524 2.85662 15.7623 3.18462L16.8655 2.3831C16.5431 1.93933 16.1528 1.54907 15.7091 1.22666L14.9075 2.32986ZM9.00018 0.228338C7.31094 0.228338 5.98925 0.227402 4.94243 0.340818C3.88285 0.455616 3.02432 0.694087 2.2913 1.22666L3.09283 2.32986C3.55465 1.99433 4.14575 1.79875 5.08931 1.69652C6.04563 1.59291 7.28057 1.59197 9.00018 1.59197V0.228338ZM1.50018 9.09197C1.50018 7.37236 1.50111 6.13742 1.60472 5.18111C1.70695 4.23755 1.90253 3.64644 2.23807 3.18462L1.13486 2.3831C0.60229 3.11612 0.363819 3.97465 0.249021 5.03422C0.135605 6.08104 0.136541 7.40274 0.136541 9.09197H1.50018ZM2.2913 1.22666C1.84753 1.54907 1.45728 1.93933 1.13486 2.3831L2.23807 3.18462C2.47637 2.85662 2.76482 2.56817 3.09283 2.32986L2.2913 1.22666ZM9.00018 1.59197C10.0666 1.59197 10.9507 1.59206 11.7041 1.61787L11.7508 0.255036C10.969 0.228253 10.0591 0.228338 9.00018 0.228338V1.59197ZM11.7041 1.61787C13.3904 1.67565 14.2661 1.86385 14.9075 2.32986L15.7091 1.22666C14.7057 0.497698 13.4539 0.313388 11.7508 0.255036L11.7041 1.61787ZM11.0456 0.93646C11.0456 1.73853 11.0441 2.2212 11.11 2.63697L12.4568 2.42365C12.4119 2.14014 12.4093 1.7885 12.4093 0.93645L11.0456 0.93646ZM17.8638 9.09197C17.8638 8.03309 17.8639 7.12311 17.8371 6.34136L16.4743 6.38805C16.5001 7.14147 16.5002 8.02554 16.5002 9.09197H17.8638ZM17.8371 6.34136C17.7788 4.63822 17.5945 3.38642 16.8655 2.3831L15.7623 3.18462C16.2283 3.82603 16.4165 4.70175 16.4743 6.38805L17.8371 6.34136ZM17.1557 5.68288C16.3037 5.68288 15.952 5.68022 15.6685 5.63532L15.4552 6.98216C15.871 7.04802 16.3536 7.04651 17.1557 7.04652L17.1557 5.68288ZM6.2729 11.592H11.7274V10.2283H6.2729V11.592ZM9.682 13.6374V8.18288H8.31836V13.6374H9.682Z" fill="#32374A"/>
</svg>
