<svg width="20" height="20" viewBox="0 0 20 20" fill="none" xmlns="http://www.w3.org/2000/svg">
<g clip-path="url(#clip0_856_6101)">
<path d="M8.5 7H6.5C6.22363 7 6 7.22152 6 7.49528V14H9V7.49528C9 7.22152 8.77637 7 8.5 7Z" fill="#6F727C"/>
<path d="M13.5 3H11.5C11.2236 3 11 3.48552 11 4.08553V14H14V4.08553C14 3.48552 13.7764 3 13.5 3Z" fill="#6F727C"/>
<path d="M18.5 0H16.5C16.2236 0 16 0.345316 16 0.772059V14H19V0.772059C19 0.345316 18.7764 0 18.5 0Z" fill="#6F727C"/>
<path d="M3.5 5H1.5C1.22363 5 1 5.49493 1 6.10656V14H4V6.10656C4 5.49493 3.77637 5 3.5 5Z" fill="#6F727C"/>
<path d="M19.4141 18C16.7975 18 15.5965 18 15.1222 18C14.9054 18 14.828 18 14.8286 18C13.9652 18 10.7515 18 0.585938 18C0.26207 18 0 18.4473 0 19C0 19.5527 0.26207 20 0.585938 20C7.67656 20 12.7902 20 19.4141 20C19.7379 20 20 19.5527 20 19C20 18.4473 19.7379 18 19.4141 18Z" fill="#6F727C"/>
</g>
<defs>
<clipPath id="clip0_856_6101">
<rect width="20" height="20" fill="white"/>
</clipPath>
</defs>
</svg>
