<svg width="21" height="20" viewBox="0 0 21 20" fill="none" xmlns="http://www.w3.org/2000/svg">
<g clip-path="url(#clip0_501_1384)">
<path d="M4.79731 8.66111C6.39731 11.8056 8.96953 14.3778 12.1195 15.9778L14.564 13.5278C14.8695 13.2222 15.3084 13.1333 15.6918 13.2556C16.9362 13.6667 18.2751 13.8889 19.6584 13.8889C20.2751 13.8889 20.7695 14.3833 20.7695 15V18.8889C20.7695 19.5056 20.2751 20 19.6584 20C9.22509 20 0.769531 11.5444 0.769531 1.11111C0.769531 0.494444 1.26953 0 1.88064 0H5.76953C6.3862 0 6.88064 0.494444 6.88064 1.11111C6.88064 2.49444 7.10286 3.83333 7.51398 5.07778C7.6362 5.46111 7.54731 5.9 7.24175 6.20556L4.79731 8.66111Z" fill="#292C32"/>
</g>
<defs>
<clipPath id="clip0_501_1384">
<rect width="20" height="20" fill="white" transform="translate(0.769531)"/>
</clipPath>
</defs>
</svg>
