<svg width="17" height="18" viewBox="0 0 17 18" fill="none" xmlns="http://www.w3.org/2000/svg">
<path d="M5.75941 10.3275C5.75941 9.99199 6.0314 9.72 6.36691 9.72H11.2269C11.5624 9.72 11.8344 9.99199 11.8344 10.3275C11.8344 10.663 11.5624 10.935 11.2269 10.935H6.36691C6.0314 10.935 5.75941 10.663 5.75941 10.3275Z" fill="#A5ACB8"/>
<path fill-rule="evenodd" clip-rule="evenodd" d="M6.36691 0C6.70243 0 6.97441 0.271987 6.97441 0.6075V1.62859C7.51649 1.62 8.11881 1.62 8.78796 1.62H8.80587C9.47502 1.62 10.0773 1.62 10.6194 1.62859V0.6075C10.6194 0.271987 10.8914 0 11.2269 0C11.5624 0 11.8344 0.271987 11.8344 0.6075V1.6715C13.0591 1.74828 13.9999 1.94671 14.7745 2.5095C15.1699 2.79678 15.5176 3.14449 15.8049 3.53989C16.4544 4.43386 16.6186 5.54921 16.6706 7.0667C16.6944 7.76104 16.6944 8.56892 16.6944 9.50858V9.52642C16.6944 10.4661 16.6944 11.274 16.6706 11.9683C16.6186 13.4858 16.4544 14.6011 15.8049 15.4951C15.5176 15.8905 15.1699 16.2382 14.7745 16.5255C13.8806 17.175 12.7652 17.3392 11.2477 17.3912C10.5533 17.415 9.74539 17.415 8.80565 17.415H8.76024C7.27266 17.415 6.10659 17.415 5.18146 17.3148C4.23737 17.2125 3.47243 17 2.8193 16.5255C2.42391 16.2382 2.07619 15.8905 1.78892 15.4951C1.3144 14.842 1.10192 14.077 0.999634 13.133C0.899402 12.2078 0.899407 11.0417 0.899414 9.55415L0.899414 9.50853C0.899414 8.56889 0.899414 7.76103 0.923203 7.0667C0.975194 5.54921 1.13941 4.43386 1.78892 3.53989C2.07619 3.14449 2.42391 2.79678 2.8193 2.5095C3.59392 1.94671 4.53476 1.74828 5.75941 1.6715V0.6075C5.75941 0.271987 6.0314 0 6.36691 0ZM5.75941 2.88947C4.65615 2.96535 4.01935 3.13944 3.53346 3.49246C3.24121 3.70479 2.98421 3.9618 2.77187 4.25405C2.41885 4.73994 2.24476 5.37674 2.16889 6.48H15.4249C15.3491 5.37674 15.175 4.73994 14.822 4.25405C14.6096 3.9618 14.3526 3.70479 14.0604 3.49246C13.5745 3.13944 12.9377 2.96535 11.8344 2.88947V3.0375C11.8344 3.37301 11.5624 3.645 11.2269 3.645C10.8914 3.645 10.6194 3.37301 10.6194 3.0375V2.84374C10.0851 2.83504 9.48344 2.835 8.79691 2.835C8.11038 2.835 7.50868 2.83504 6.97441 2.84374V3.0375C6.97441 3.37301 6.70243 3.645 6.36691 3.645C6.0314 3.645 5.75941 3.37301 5.75941 3.0375V2.88947ZM15.4707 7.695H2.12315C2.11445 8.22927 2.11441 8.83097 2.11441 9.5175C2.11441 11.0497 2.11525 12.15 2.20756 13.0021C2.29865 13.8428 2.47291 14.3695 2.77187 14.781C2.98421 15.0732 3.24121 15.3302 3.53346 15.5425C3.94495 15.8415 4.47162 16.0158 5.31233 16.1069C6.16441 16.1992 7.26474 16.2 8.79691 16.2C9.48407 16.2 10.0863 16.2 10.6209 16.1912C10.6244 15.8068 10.6364 15.5237 10.6768 15.2689C10.9924 13.276 12.5554 11.713 14.5483 11.3973C14.8032 11.357 15.0862 11.345 15.4707 11.3415C15.4794 10.8068 15.4794 10.2047 15.4794 9.5175C15.4794 8.83097 15.4794 8.22927 15.4707 7.695ZM15.4248 12.5573C15.0968 12.561 14.9045 12.5711 14.7384 12.5974C13.2654 12.8307 12.1101 13.986 11.8768 15.459C11.8505 15.6251 11.8405 15.8174 11.8367 16.1454C12.9385 16.0694 13.5748 15.8953 14.0604 15.5425C14.3526 15.3302 14.6096 15.0732 14.822 14.781C15.1747 14.2954 15.3488 13.6591 15.4248 12.5573Z" fill="#A5ACB8"/>
</svg>
