<svg width="14" height="14" viewBox="0 0 14 14" fill="none" xmlns="http://www.w3.org/2000/svg">
<path d="M1.81751 13.0668L1.81695 13.0674C1.69506 13.1886 1.535 13.25 1.37513 13.25C1.21604 13.25 1.05546 13.1895 0.933235 13.0673M1.81751 13.0668L0.933235 13.0673M1.81751 13.0668L7 7.87804L12.1821 13.0664C12.1822 13.0665 12.1822 13.0665 12.1823 13.0666C12.3047 13.1896 12.4655 13.25 12.6249 13.25C12.7845 13.25 12.9447 13.1888 13.0663 13.0677L13.0665 13.0675C13.3112 12.8235 13.3109 12.4278 13.0674 12.1837L13.0672 12.1836L7.88959 7.00002L13.0669 1.81685L13.067 1.81672C13.3105 1.5726 13.3108 1.17694 13.0662 0.93292C12.8218 0.68922 12.4265 0.688526 12.1823 0.933839C12.1822 0.933884 12.1822 0.933929 12.1821 0.933974L6.99963 6.12239L1.81713 0.933627L1.81703 0.933522C1.57294 0.689427 1.17728 0.689101 0.933235 0.933146L1.11001 1.10992M1.81751 13.0668L0.93286 12.1835M0.933235 13.0673C0.688946 12.8234 0.689022 12.4273 0.93286 12.1835M0.933235 13.0673L0.93286 12.1835M0.93286 12.1835L6.10968 7.00003L0.932755 1.81684L0.932634 1.81672C0.689147 1.5726 0.688821 1.17694 0.933461 0.93292L1.11001 1.10992M1.11001 1.10992C0.963391 1.25617 0.963392 1.49355 1.10964 1.64017L1.11001 1.10992Z" fill="white" stroke="white" stroke-width="0.5"/>
</svg>
