<svg width="16" height="16" viewBox="0 0 16 16" fill="none" xmlns="http://www.w3.org/2000/svg">
<path d="M8.72612 10.9089C8.72612 11.3106 8.40051 11.6362 7.99885 11.6362C7.59718 11.6362 7.27157 11.3106 7.27157 10.9089C7.27157 10.5073 7.59718 10.1816 7.99885 10.1816C8.40051 10.1816 8.72612 10.5073 8.72612 10.9089Z" fill="#FF543E"/>
<path d="M8.5443 4.36346C8.5443 4.06221 8.30009 3.818 7.99885 3.818C7.6976 3.818 7.45339 4.06221 7.45339 4.36346V8.72709C7.45339 9.02834 7.6976 9.27255 7.99885 9.27255C8.30009 9.27255 8.5443 9.02834 8.5443 8.72709V4.36346Z" fill="#FF543E"/>
<path fill-rule="evenodd" clip-rule="evenodd" d="M7.99885 0.181641C3.68098 0.181641 0.180664 3.68196 0.180664 7.99982C0.180664 12.3177 3.68098 15.818 7.99885 15.818C12.3167 15.818 15.817 12.3177 15.817 7.99982C15.817 3.68196 12.3167 0.181641 7.99885 0.181641ZM1.27157 7.99982C1.27157 4.28445 4.28348 1.27255 7.99885 1.27255C11.7142 1.27255 14.7261 4.28445 14.7261 7.99982C14.7261 11.7152 11.7142 14.7271 7.99885 14.7271C4.28348 14.7271 1.27157 11.7152 1.27157 7.99982Z" fill="#FF543E"/>
</svg>
