<svg width="20" height="20" viewBox="0 0 20 20" fill="none" xmlns="http://www.w3.org/2000/svg">
<path d="M3.69206 18.2239L4.09283 17.6723L3.69206 18.2239ZM2.68646 17.2183L3.23807 16.8175L2.68646 17.2183ZM17.3139 17.2183L16.7623 16.8175L17.3139 17.2183ZM16.3083 18.2239L15.9075 17.6723L16.3083 18.2239ZM16.3083 1.77826L15.9075 2.32986L16.3083 1.77826ZM17.3139 2.78386L16.7623 3.18462L17.3139 2.78386ZM3.69206 1.77826L4.09283 2.32986L3.69206 1.77826ZM2.68646 2.78386L3.23807 3.18462L2.68646 2.78386ZM6.36381 12.9556C5.98726 12.9556 5.682 13.2609 5.682 13.6374C5.682 14.014 5.98726 14.3192 6.36381 14.3192V12.9556ZM13.6365 14.3192C14.0131 14.3192 14.3184 14.014 14.3184 13.6374C14.3184 13.2609 14.0131 12.9556 13.6365 12.9556V14.3192ZM6.36381 9.31925C5.98726 9.31925 5.682 9.62451 5.682 10.0011C5.682 10.3776 5.98726 10.6829 6.36381 10.6829V9.31925ZM13.6365 10.6829C14.0131 10.6829 14.3184 10.3776 14.3184 10.0011C14.3184 9.62451 14.0131 9.31925 13.6365 9.31925V10.6829ZM6.36381 5.68288C5.98726 5.68288 5.682 5.98814 5.682 6.3647C5.682 6.74126 5.98726 7.04652 6.36381 7.04652V5.68288ZM13.6365 7.04652C14.0131 7.04652 14.3184 6.74126 14.3184 6.3647C14.3184 5.98814 14.0131 5.68288 13.6365 5.68288V7.04652ZM17.5002 9.09197V10.9102H18.8638V9.09197H17.5002ZM2.50018 10.9102V9.09197H1.13654V10.9102H2.50018ZM10.0002 18.4102C8.28057 18.4102 7.04563 18.4092 6.08931 18.3056C5.14575 18.2034 4.55465 18.0078 4.09283 17.6723L3.2913 18.7755C4.02432 19.308 4.88285 19.5465 5.94243 19.6613C6.98925 19.7747 8.31094 19.7738 10.0002 19.7738V18.4102ZM1.13654 10.9102C1.13654 12.5994 1.13561 13.9211 1.24902 14.9679C1.36382 16.0275 1.60229 16.886 2.13486 17.619L3.23807 16.8175C2.90253 16.3557 2.70695 15.7646 2.60472 14.821C2.50111 13.8647 2.50018 12.6298 2.50018 10.9102H1.13654ZM4.09283 17.6723C3.76482 17.434 3.47637 17.1455 3.23807 16.8175L2.13486 17.619C2.45728 18.0628 2.84753 18.4531 3.2913 18.7755L4.09283 17.6723ZM17.5002 10.9102C17.5002 12.6298 17.4992 13.8647 17.3956 14.821C17.2934 15.7646 17.0978 16.3557 16.7623 16.8175L17.8655 17.619C18.3981 16.886 18.6365 16.0275 18.7513 14.9679C18.8647 13.9211 18.8638 12.5994 18.8638 10.9102H17.5002ZM10.0002 19.7738C11.6894 19.7738 13.0111 19.7747 14.0579 19.6613C15.1175 19.5465 15.976 19.308 16.7091 18.7755L15.9075 17.6723C15.4457 18.0078 14.8546 18.2034 13.911 18.3056C12.9547 18.4092 11.7198 18.4102 10.0002 18.4102V19.7738ZM16.7623 16.8175C16.524 17.1455 16.2355 17.434 15.9075 17.6723L16.7091 18.7755C17.1528 18.4531 17.5431 18.0628 17.8655 17.619L16.7623 16.8175ZM10.0002 1.59197C11.7198 1.59197 12.9547 1.59291 13.911 1.69652C14.8546 1.79875 15.4457 1.99433 15.9075 2.32986L16.7091 1.22666C15.976 0.694087 15.1175 0.455616 14.0579 0.340818C13.0111 0.227402 11.6894 0.228338 10.0002 0.228338V1.59197ZM18.8638 9.09197C18.8638 7.40274 18.8647 6.08104 18.7513 5.03422C18.6365 3.97465 18.3981 3.11612 17.8655 2.3831L16.7623 3.18462C17.0978 3.64644 17.2934 4.23755 17.3956 5.18111C17.4992 6.13742 17.5002 7.37236 17.5002 9.09197H18.8638ZM15.9075 2.32986C16.2355 2.56817 16.524 2.85662 16.7623 3.18462L17.8655 2.3831C17.5431 1.93933 17.1528 1.54907 16.7091 1.22666L15.9075 2.32986ZM10.0002 0.228338C8.31094 0.228338 6.98925 0.227402 5.94243 0.340818C4.88285 0.455616 4.02432 0.694087 3.2913 1.22666L4.09283 2.32986C4.55465 1.99433 5.14575 1.79875 6.08931 1.69652C7.04563 1.59291 8.28057 1.59197 10.0002 1.59197V0.228338ZM2.50018 9.09197C2.50018 7.37236 2.50111 6.13742 2.60472 5.18111C2.70695 4.23755 2.90253 3.64644 3.23807 3.18462L2.13486 2.3831C1.60229 3.11612 1.36382 3.97465 1.24902 5.03422C1.13561 6.08104 1.13654 7.40274 1.13654 9.09197H2.50018ZM3.2913 1.22666C2.84753 1.54907 2.45728 1.93933 2.13486 2.3831L3.23807 3.18462C3.47637 2.85662 3.76482 2.56817 4.09283 2.32986L3.2913 1.22666ZM6.36381 14.3192H13.6365V12.9556H6.36381V14.3192ZM6.36381 10.6829H13.6365V9.31925H6.36381V10.6829ZM6.36381 7.04652H13.6365V5.68288H6.36381V7.04652Z" fill="#32374A"/>
</svg>
