<svg width="18" height="20" viewBox="0 0 18 20" fill="none" xmlns="http://www.w3.org/2000/svg">
<path d="M5.36399 5.68208C4.98743 5.68208 4.68217 5.98735 4.68217 6.3639C4.68217 6.74046 4.98743 7.04572 5.36399 7.04572H8.09126C8.46782 7.04572 8.77308 6.74046 8.77308 6.3639C8.77308 5.98735 8.46782 5.68208 8.09126 5.68208H5.36399Z" fill="#6F727C"/>
<path d="M5.36399 9.31845C4.98743 9.31845 4.68217 9.62371 4.68217 10.0003C4.68217 10.3768 4.98743 10.6821 5.36399 10.6821H12.6367C13.0133 10.6821 13.3185 10.3768 13.3185 10.0003C13.3185 9.62371 13.0133 9.31845 12.6367 9.31845H5.36399Z" fill="#6F727C"/>
<path d="M5.36399 12.9548C4.98743 12.9548 4.68217 13.2601 4.68217 13.6366C4.68217 14.0132 4.98743 14.3184 5.36399 14.3184H12.6367C13.0133 14.3184 13.3185 14.0132 13.3185 13.6366C13.3185 13.2601 13.0133 12.9548 12.6367 12.9548H5.36399Z" fill="#6F727C"/>
<path fill-rule="evenodd" clip-rule="evenodd" d="M13.0581 0.340019C12.0198 0.227526 10.7111 0.227532 9.04149 0.227539H8.95922C7.28964 0.227532 5.98091 0.227526 4.94261 0.340019C3.88303 0.454817 3.0245 0.693288 2.29148 1.22586C1.84771 1.54828 1.45746 1.93853 1.13504 2.3823C0.602468 3.11532 0.363997 3.97385 0.249199 5.03343C0.136706 6.07173 0.136711 7.38046 0.136719 9.05004V10.9505C0.136711 12.6201 0.136706 13.9288 0.249199 14.9671C0.363997 16.0267 0.602468 16.8852 1.13504 17.6182C1.45746 18.062 1.84771 18.4523 2.29148 18.7747C3.0245 19.3072 3.88303 19.5457 4.94261 19.6605C5.98089 19.773 7.2896 19.773 8.95913 19.773H9.04151C10.711 19.773 12.0198 19.773 13.0581 19.6605C14.1177 19.5457 14.9762 19.3072 15.7092 18.7747C16.153 18.4523 16.5433 18.062 16.8657 17.6182C17.3982 16.8852 17.6367 16.0267 17.7515 14.9671C17.864 13.9288 17.864 12.6201 17.864 10.9506V9.05002C17.864 7.38048 17.864 6.07171 17.7515 5.03343C17.6367 3.97385 17.3982 3.11532 16.8657 2.3823C16.5433 1.93853 16.153 1.54828 15.7092 1.22586C14.9762 0.693288 14.1177 0.454817 13.0581 0.340019ZM3.093 2.32906C3.55483 1.99353 4.14593 1.79795 5.08949 1.69572C6.0458 1.59211 7.28074 1.59118 9.00035 1.59118C10.72 1.59118 11.9549 1.59211 12.9112 1.69572C13.8548 1.79795 14.4459 1.99353 14.9077 2.32906C15.2357 2.56737 15.5242 2.85582 15.7625 3.18382C16.098 3.64565 16.2936 4.23675 16.3958 5.18031C16.4994 6.13662 16.5004 7.37156 16.5004 9.09118V10.9094C16.5004 12.629 16.4994 13.8639 16.3958 14.8202C16.2936 15.7638 16.098 16.3549 15.7625 16.8167C15.5242 17.1447 15.2357 17.4332 14.9077 17.6715C14.4459 18.007 13.8548 18.2026 12.9112 18.3048C11.9549 18.4084 10.72 18.4094 9.00035 18.4094C7.28074 18.4094 6.0458 18.4084 5.08949 18.3048C4.14593 18.2026 3.55483 18.007 3.093 17.6715C2.765 17.4332 2.47655 17.1447 2.23824 16.8167C1.90271 16.3549 1.70713 15.7638 1.6049 14.8202C1.50129 13.8639 1.50036 12.629 1.50036 10.9094V9.09118C1.50036 7.37156 1.50129 6.13662 1.6049 5.18031C1.70713 4.23675 1.90271 3.64565 2.23824 3.18382C2.47655 2.85582 2.765 2.56737 3.093 2.32906Z" fill="#6F727C"/>
</svg>
