<svg width="19" height="19" viewBox="0 0 19 19" fill="none" xmlns="http://www.w3.org/2000/svg">
<path d="M6.92777 16.8641L6.64047 16.1287L6.92777 16.8641ZM2.65787 17.684L2.26314 18.3677L2.26314 18.3677L2.65787 17.684ZM1.23301 13.5762L0.452537 13.6951L1.23301 13.5762ZM1.74911 10.837L2.43282 11.2317L1.74911 10.837ZM1.13422 12.1394L0.358396 11.9932H0.358396L1.13422 12.1394ZM9.04196 15.0475L9.72566 15.4423L9.04196 15.0475ZM8.22151 16.2312L8.73601 16.83H8.73601L8.22151 16.2312ZM5.74747 3.91164L5.06376 3.5169L5.74747 3.91164ZM17.3264 18.9494C17.7624 18.9494 18.1159 18.596 18.1159 18.16C18.1159 17.7239 17.7624 17.3705 17.3264 17.3705V18.9494ZM11.0106 17.3705C10.5746 17.3705 10.2212 17.7239 10.2212 18.16C10.2212 18.596 10.5746 18.9494 11.0106 18.9494V17.3705ZM12.3566 7.72743L8.35825 14.6528L9.72566 15.4423L13.724 8.5169L12.3566 7.72743ZM2.43282 11.2317L6.43117 4.30637L5.06376 3.5169L1.06541 10.4423L2.43282 11.2317ZM6.64047 16.1287C5.48629 16.5797 4.70023 16.8847 4.09341 17.0265C3.50723 17.1634 3.24124 17.1092 3.05261 17.0003L2.26314 18.3677C2.95079 18.7647 3.68854 18.7425 4.45263 18.564C5.19609 18.3903 6.10683 18.0324 7.21506 17.5994L6.64047 16.1287ZM0.452537 13.6951C0.631683 14.8713 0.777099 15.839 0.998401 16.5697C1.22584 17.3207 1.57548 17.9707 2.26314 18.3677L3.05261 17.0003C2.86398 16.8914 2.68405 16.6882 2.50956 16.112C2.32893 15.5156 2.20006 14.6824 2.01348 13.4574L0.452537 13.6951ZM1.06541 10.4423C0.72665 11.029 0.455423 11.4782 0.358396 11.9932L1.91004 12.2855C1.94578 12.0959 2.04023 11.9117 2.43282 11.2317L1.06541 10.4423ZM2.01348 13.4574C1.89526 12.6811 1.8743 12.4752 1.91004 12.2855L0.358396 11.9932C0.261368 12.5082 0.350525 13.0253 0.452537 13.6951L2.01348 13.4574ZM8.35825 14.6528C7.96567 15.3328 7.85342 15.5066 7.70701 15.6324L8.73601 16.83C9.13348 16.4885 9.3869 16.029 9.72566 15.4423L8.35825 14.6528ZM7.21506 17.5994C7.84612 17.3529 8.33854 17.1715 8.73601 16.83L7.70701 15.6324C7.5606 15.7582 7.37181 15.843 6.64047 16.1287L7.21506 17.5994ZM11.1044 3.05418C11.9832 3.56155 12.5727 3.90383 12.9789 4.21726C13.3669 4.51669 13.4905 4.71838 13.5407 4.90577L15.0658 4.49711C14.8903 3.84218 14.4714 3.3746 13.9435 2.96724C13.4338 2.57388 12.734 2.17183 11.8939 1.68677L11.1044 3.05418ZM13.724 8.5169C14.2091 7.67676 14.614 6.97871 14.8588 6.38318C15.1123 5.76646 15.2413 5.15204 15.0658 4.49711L13.5407 4.90577C13.5909 5.09315 13.5847 5.32963 13.3984 5.78295C13.2034 6.25747 12.864 6.84863 12.3566 7.72743L13.724 8.5169ZM11.8939 1.68677C11.0538 1.20172 10.3557 0.796761 9.76017 0.551998C9.14345 0.298524 8.52903 0.169467 7.8741 0.344954L8.28276 1.8701C8.47015 1.81989 8.70662 1.82609 9.15994 2.01241C9.63446 2.20744 10.2256 2.54681 11.1044 3.05418L11.8939 1.68677ZM6.43117 4.30637C6.93855 3.42757 7.28082 2.83809 7.59425 2.43193C7.89368 2.04392 8.09538 1.92031 8.28276 1.8701L7.8741 0.344954C7.21917 0.520442 6.7516 0.939419 6.34423 1.4673C5.95087 1.97703 5.54882 2.67676 5.06376 3.5169L6.43117 4.30637ZM13.4351 7.43846L6.14221 3.22793L5.35273 4.59534L12.6456 8.80587L13.4351 7.43846ZM17.3264 17.3705H11.0106V18.9494H17.3264V17.3705Z" fill="white"/>
</svg>
