<svg width="20" height="21" viewBox="0 0 20 21" fill="none" xmlns="http://www.w3.org/2000/svg">
<g clip-path="url(#clip0_757_4320)">
<path fill-rule="evenodd" clip-rule="evenodd" d="M3.11172 3.42584C6.92821 -0.390645 13.116 -0.390645 16.9324 3.42584C20.7489 7.24233 20.7489 13.4301 16.9324 17.2466C15.811 18.368 14.0879 19.3934 12.168 19.8527C10.2385 20.3143 8.05949 20.2138 6.093 18.9985C5.99095 18.9355 5.92563 18.8952 5.87629 18.8664C5.84279 18.8469 5.8279 18.8394 5.82485 18.8379C5.79172 18.825 5.77958 18.8235 5.77958 18.8235C5.77802 18.8232 5.76561 18.8213 5.72773 18.8242C5.73435 18.8237 5.72762 18.8234 5.68738 18.8325C5.64465 18.8422 5.5884 18.8567 5.4935 18.8813L5.46941 18.8875C4.91814 19.0304 4.47093 19.1463 4.11091 19.2142C3.74882 19.2825 3.39743 19.3189 3.0594 19.2501C2.07643 19.0501 1.30822 18.2819 1.10818 17.2989C1.03938 16.9609 1.0758 16.6095 1.14408 16.2474C1.21197 15.8874 1.32789 15.4401 1.47078 14.8889L1.47702 14.8648C1.50163 14.7698 1.51612 14.7136 1.52577 14.6709C1.53485 14.6308 1.53455 14.6241 1.53405 14.6306C1.53692 14.5932 1.53497 14.5807 1.53467 14.5787C1.53439 14.5769 1.53262 14.565 1.52015 14.5331C1.5186 14.5301 1.51117 14.5153 1.49179 14.4822C1.46313 14.4333 1.42296 14.3685 1.35997 14.2672C0.143078 12.309 0.0164208 10.1539 0.468788 8.22905C0.918801 6.31426 1.94838 4.58918 3.11172 3.42584ZM15.9682 4.39008C12.6843 1.10612 7.35991 1.10612 4.07596 4.39008C3.08621 5.37982 2.18638 6.88108 1.79626 8.54103C1.40849 10.191 1.53099 11.9589 2.51817 13.5474C2.52712 13.5618 2.5361 13.5762 2.54507 13.5906C2.63907 13.7414 2.73214 13.8907 2.78545 14.0246C2.88082 14.2641 2.91341 14.4779 2.89369 14.7349C2.8827 14.8782 2.84393 15.0269 2.80678 15.1695C2.80351 15.182 2.80026 15.1945 2.79704 15.2069C2.64642 15.788 2.54245 16.1906 2.4841 16.5001C2.42515 16.8127 2.42939 16.9531 2.44442 17.027C2.53535 17.4738 2.88454 17.8229 3.33134 17.9139C3.40519 17.9289 3.54561 17.9331 3.85822 17.8742C4.16766 17.8158 4.57026 17.7119 5.15136 17.5613C5.16381 17.558 5.17631 17.5548 5.18886 17.5515C5.33131 17.5144 5.47984 17.4757 5.62267 17.4646C5.87936 17.4448 6.09161 17.4769 6.33097 17.5716C6.46452 17.6245 6.61443 17.7174 6.76625 17.8115C6.78077 17.8205 6.79531 17.8295 6.80986 17.8385C8.39773 18.8198 10.1856 18.9248 11.8507 18.5265C13.5253 18.1259 15.0245 17.226 15.9682 16.2823C19.2522 12.9984 19.2522 7.67403 15.9682 4.39008Z" fill="#32374A"/>
<path d="M9.999 12.4044C10.4253 12.4044 10.7569 12.1043 10.7727 11.6938L10.7885 11.5359C10.7885 11.0779 11.0412 10.7148 11.8939 9.95681C12.8887 9.07253 13.2835 8.40933 13.2835 7.57242C13.2835 6.07231 12.0202 4.95117 10.3622 4.95117C9.09893 4.95117 8.11991 5.56701 7.6304 6.64077C7.53565 6.81447 7.48828 6.95659 7.48828 7.14607C7.48828 7.55663 7.81989 7.88823 8.23044 7.88823C8.53046 7.88823 8.75153 7.74612 8.94102 7.41451C9.24104 6.79868 9.71476 6.48287 10.299 6.48287C11.0096 6.48287 11.5623 7.01975 11.5623 7.74612C11.5623 8.29879 11.357 8.61461 10.4253 9.45151C9.4937 10.32 9.20946 10.7937 9.20946 11.4569V11.6464C9.20946 12.0728 9.57265 12.4044 9.999 12.4044ZM10.0464 15.7204C10.7096 15.7204 11.2307 15.1993 11.2307 14.5361C11.2307 13.8729 10.7096 13.336 10.0464 13.336C9.36737 13.336 8.83049 13.8729 8.83049 14.5361C8.83049 15.1993 9.36737 15.7204 10.0464 15.7204Z" fill="#32374A"/>
</g>
<defs>
<clipPath id="clip0_757_4320">
<rect width="20" height="20" fill="white" transform="translate(0 0.335938)"/>
</clipPath>
</defs>
</svg>
