<svg width="25" height="20" viewBox="0 0 25 20" fill="none" xmlns="http://www.w3.org/2000/svg">
<path d="M21.3368 19.9778C21.5671 19.9778 21.7879 19.8864 21.9507 19.7236C22.1134 19.5608 22.2049 19.34 22.2049 19.1098V16.4101C22.908 16.2216 23.5293 15.8064 23.9724 15.2288C24.4155 14.6512 24.6556 13.9436 24.6556 13.2157C24.6556 12.4877 24.4155 11.7801 23.9724 11.2026C23.5293 10.625 22.908 10.2098 22.2049 10.0212V1.43617C22.2049 1.20595 22.1134 0.985155 21.9507 0.822363C21.7879 0.659571 21.5671 0.568115 21.3368 0.568115C21.1066 0.568115 20.8858 0.659571 20.723 0.822363C20.5602 0.985155 20.4688 1.20595 20.4688 1.43617V10.0299C19.7657 10.2185 19.1444 10.6337 18.7013 11.2113C18.2582 11.7888 18.0181 12.4964 18.0181 13.2244C18.0181 13.9523 18.2582 14.6599 18.7013 15.2375C19.1444 15.815 19.7657 16.2303 20.4688 16.4188V19.1185C20.4711 19.3472 20.5635 19.5658 20.7261 19.7267C20.8886 19.8876 21.1081 19.9779 21.3368 19.9778ZM19.7483 13.2157C19.7483 12.9015 19.8415 12.5944 20.016 12.3331C20.1906 12.0719 20.4387 11.8683 20.7289 11.7481C21.0192 11.6278 21.3386 11.5964 21.6468 11.6577C21.9549 11.719 22.238 11.8703 22.4601 12.0924C22.6823 12.3146 22.8336 12.5976 22.8949 12.9058C22.9562 13.2139 22.9247 13.5333 22.8045 13.8236C22.6842 14.1139 22.4806 14.362 22.2194 14.5365C21.9582 14.7111 21.651 14.8042 21.3368 14.8042C20.9155 14.8042 20.5115 14.6369 20.2136 14.339C19.9157 14.0411 19.7483 13.637 19.7483 13.2157Z" fill="white"/>
<path d="M12.4995 19.9778C12.7297 19.9778 12.9505 19.8864 13.1133 19.7236C13.2761 19.5608 13.3675 19.34 13.3675 19.1098V7.07854C14.1455 6.86812 14.8205 6.38228 15.2671 5.71139C15.7136 5.04051 15.9013 4.23026 15.7952 3.43137C15.689 2.63247 15.2963 1.89933 14.6901 1.36831C14.0839 0.837292 13.3054 0.544556 12.4995 0.544556C11.6936 0.544556 10.9151 0.837292 10.3088 1.36831C9.70261 1.89933 9.3099 2.63247 9.20377 3.43137C9.09763 4.23026 9.2853 5.04051 9.73185 5.71139C10.1784 6.38228 10.8535 6.86812 11.6314 7.07854V19.1098C11.6314 19.34 11.7229 19.5608 11.8857 19.7236C12.0484 19.8864 12.2692 19.9778 12.4995 19.9778ZM10.9109 3.89277C10.9092 3.57823 11.0009 3.27025 11.1744 3.00787C11.3479 2.7455 11.5954 2.54054 11.8855 2.41898C12.1756 2.29741 12.4953 2.26471 12.804 2.32502C13.1127 2.38533 13.3966 2.53594 13.6196 2.75775C13.8427 2.97956 13.9948 3.2626 14.0568 3.57098C14.1188 3.87936 14.0879 4.19921 13.9679 4.48998C13.8479 4.78075 13.6443 5.02936 13.3829 5.2043C13.1215 5.37924 12.814 5.47263 12.4995 5.47263C12.0797 5.47264 11.6769 5.30647 11.3793 5.01043C11.0816 4.7144 10.9132 4.31257 10.9109 3.89277Z" fill="white"/>
<path d="M2.79497 13.4674V19.1098C2.79497 19.34 2.88642 19.5608 3.04921 19.7236C3.21201 19.8864 3.4328 19.9778 3.66302 19.9778C3.89324 19.9778 4.11404 19.8864 4.27683 19.7236C4.43962 19.5608 4.53108 19.34 4.53108 19.1098V13.4674C5.23419 13.2789 5.85545 12.8637 6.29855 12.2861C6.74164 11.7085 6.98181 11.0009 6.98181 10.273C6.98181 9.54504 6.74164 8.83742 6.29855 8.25987C5.85545 7.68231 5.23419 7.26707 4.53108 7.07853V1.43617C4.53108 1.20595 4.43962 0.985155 4.27683 0.822363C4.11404 0.659571 3.89324 0.568115 3.66302 0.568115C3.4328 0.568115 3.21201 0.659571 3.04921 0.822363C2.88642 0.985155 2.79497 1.20595 2.79497 1.43617V7.07853C2.09186 7.26707 1.47059 7.68231 1.0275 8.25987C0.584404 8.83742 0.344238 9.54504 0.344238 10.273C0.344238 11.0009 0.584404 11.7085 1.0275 12.2861C1.47059 12.8637 2.09186 13.2789 2.79497 13.4674ZM3.66302 8.68444C3.97757 8.68272 4.28555 8.77442 4.54792 8.94793C4.8103 9.12143 5.01525 9.36892 5.13682 9.65903C5.25838 9.94915 5.29108 10.2688 5.23077 10.5775C5.17046 10.8863 5.01986 11.1701 4.79804 11.3931C4.57623 11.6162 4.2932 11.7683 3.98482 11.8303C3.67644 11.8923 3.35659 11.8614 3.06582 11.7414C2.77504 11.6214 2.52643 11.4178 2.35149 11.1564C2.17655 10.895 2.08317 10.5875 2.08316 10.273C2.08315 9.85317 2.24933 9.45043 2.54536 9.15277C2.84139 8.85511 3.24322 8.68673 3.66302 8.68444Z" fill="white"/>
</svg>
