<svg width="24" height="26" viewBox="0 0 24 26" fill="none" xmlns="http://www.w3.org/2000/svg">
<path fill-rule="evenodd" clip-rule="evenodd" d="M4.2 0.325195C2.22558 0.325195 0.625 1.92578 0.625 3.9002C0.625 5.87461 2.22558 7.4752 4.2 7.4752C6.17442 7.4752 7.775 5.87461 7.775 3.9002C7.775 1.92578 6.17442 0.325195 4.2 0.325195ZM2.575 3.9002C2.575 3.00273 3.30254 2.2752 4.2 2.2752C5.09746 2.2752 5.825 3.00273 5.825 3.9002C5.825 4.79766 5.09746 5.5252 4.2 5.5252C3.30254 5.5252 2.575 4.79766 2.575 3.9002Z" fill="#61707B"/>
<path d="M12 2.9252C11.4615 2.9252 11.025 3.36172 11.025 3.9002C11.025 4.43867 11.4615 4.8752 12 4.8752L22.4 4.8752C22.9385 4.8752 23.375 4.43867 23.375 3.9002C23.375 3.36172 22.9385 2.9252 22.4 2.9252L12 2.9252Z" fill="#61707B"/>
<path fill-rule="evenodd" clip-rule="evenodd" d="M19.8 9.4252C17.8256 9.4252 16.225 11.0258 16.225 13.0002C16.225 14.9746 17.8256 16.5752 19.8 16.5752C21.7744 16.5752 23.375 14.9746 23.375 13.0002C23.375 11.0258 21.7744 9.4252 19.8 9.4252ZM18.175 13.0002C18.175 12.1027 18.9025 11.3752 19.8 11.3752C20.6975 11.3752 21.425 12.1027 21.425 13.0002C21.425 13.8977 20.6975 14.6252 19.8 14.6252C18.9025 14.6252 18.175 13.8977 18.175 13.0002Z" fill="#61707B"/>
<path d="M1.6 12.0252C1.06152 12.0252 0.625 12.4617 0.625 13.0002C0.625 13.5387 1.06152 13.9752 1.6 13.9752L12 13.9752C12.5385 13.9752 12.975 13.5387 12.975 13.0002C12.975 12.4617 12.5385 12.0252 12 12.0252L1.6 12.0252Z" fill="#61707B"/>
<path fill-rule="evenodd" clip-rule="evenodd" d="M4.2 18.5252C2.22558 18.5252 0.625 20.1258 0.625 22.1002C0.625 24.0746 2.22558 25.6752 4.2 25.6752C6.17442 25.6752 7.775 24.0746 7.775 22.1002C7.775 20.1258 6.17442 18.5252 4.2 18.5252ZM2.575 22.1002C2.575 21.2027 3.30254 20.4752 4.2 20.4752C5.09746 20.4752 5.825 21.2027 5.825 22.1002C5.825 22.9977 5.09746 23.7252 4.2 23.7252C3.30254 23.7252 2.575 22.9977 2.575 22.1002Z" fill="#61707B"/>
<path d="M12 21.1252C11.4615 21.1252 11.025 21.5617 11.025 22.1002C11.025 22.6387 11.4615 23.0752 12 23.0752H22.4C22.9385 23.0752 23.375 22.6387 23.375 22.1002C23.375 21.5617 22.9385 21.1252 22.4 21.1252H12Z" fill="#61707B"/>
</svg>
