<svg width="27" height="26" viewBox="0 0 27 26" fill="none" xmlns="http://www.w3.org/2000/svg">
<path fill-rule="evenodd" clip-rule="evenodd" d="M5.51152 0.325012C3.53711 0.325012 1.93652 1.92559 1.93652 3.90001C1.93652 5.87443 3.53711 7.47501 5.51152 7.47501C7.48594 7.47501 9.08652 5.87443 9.08652 3.90001C9.08652 1.92559 7.48594 0.325012 5.51152 0.325012ZM3.88652 3.90001C3.88652 3.00255 4.61406 2.27501 5.51152 2.27501C6.40899 2.27501 7.13652 3.00255 7.13652 3.90001C7.13652 4.79748 6.40899 5.52501 5.51152 5.52501C4.61406 5.52501 3.88652 4.79748 3.88652 3.90001Z" fill="#6F727C"/>
<path d="M13.3115 2.92501C12.773 2.92501 12.3365 3.36153 12.3365 3.90001C12.3365 4.43849 12.773 4.87501 13.3115 4.87501L23.7115 4.87501C24.25 4.87501 24.6865 4.43849 24.6865 3.90001C24.6865 3.36154 24.25 2.92501 23.7115 2.92501L13.3115 2.92501Z" fill="#6F727C"/>
<path fill-rule="evenodd" clip-rule="evenodd" d="M21.1115 9.42501C19.1371 9.42501 17.5365 11.0256 17.5365 13C17.5365 14.9744 19.1371 16.575 21.1115 16.575C23.0859 16.575 24.6865 14.9744 24.6865 13C24.6865 11.0256 23.0859 9.42501 21.1115 9.42501ZM19.4865 13C19.4865 12.1025 20.2141 11.375 21.1115 11.375C22.009 11.375 22.7365 12.1025 22.7365 13C22.7365 13.8975 22.009 14.625 21.1115 14.625C20.2141 14.625 19.4865 13.8975 19.4865 13Z" fill="#6F727C"/>
<path d="M2.91152 12.025C2.37305 12.025 1.93652 12.4615 1.93652 13C1.93652 13.5385 2.37305 13.975 2.91152 13.975L13.3115 13.975C13.85 13.975 14.2865 13.5385 14.2865 13C14.2865 12.4615 13.85 12.025 13.3115 12.025L2.91152 12.025Z" fill="#6F727C"/>
<path fill-rule="evenodd" clip-rule="evenodd" d="M5.51152 18.525C3.53711 18.525 1.93652 20.1256 1.93652 22.1C1.93652 24.0744 3.53711 25.675 5.51152 25.675C7.48594 25.675 9.08652 24.0744 9.08652 22.1C9.08652 20.1256 7.48594 18.525 5.51152 18.525ZM3.88652 22.1C3.88652 21.2025 4.61406 20.475 5.51152 20.475C6.40899 20.475 7.13652 21.2025 7.13652 22.1C7.13652 22.9975 6.40899 23.725 5.51152 23.725C4.61406 23.725 3.88652 22.9975 3.88652 22.1Z" fill="#6F727C"/>
<path d="M13.3115 21.125C12.773 21.125 12.3365 21.5615 12.3365 22.1C12.3365 22.6385 12.773 23.075 13.3115 23.075H23.7115C24.25 23.075 24.6865 22.6385 24.6865 22.1C24.6865 21.5615 24.25 21.125 23.7115 21.125H13.3115Z" fill="#6F727C"/>
</svg>
