<svg width="20" height="20" viewBox="0 0 20 20" fill="none" xmlns="http://www.w3.org/2000/svg">
<path fill-rule="evenodd" clip-rule="evenodd" d="M1.95491 2.06107C1 3.3754 1 5.25027 1 9V11C1 14.7497 1 16.6246 1.95491 17.9389C2.26331 18.3634 2.6366 18.7367 3.06107 19.0451C4.3754 20 6.25027 20 10 20C13.7497 20 15.6246 20 16.9389 19.0451C17.3634 18.7367 17.7367 18.3634 18.0451 17.9389C19 16.6246 19 14.7497 19 11V9C19 5.25027 19 3.3754 18.0451 2.06107C17.7367 1.6366 17.3634 1.26331 16.9389 0.954915C15.6246 0 13.7497 0 10 0C6.25027 0 4.3754 0 3.06107 0.954915C2.6366 1.26331 2.26331 1.6366 1.95491 2.06107ZM6 5.25C5.58579 5.25 5.25 5.58579 5.25 6C5.25 6.41421 5.58579 6.75 6 6.75H9C9.41421 6.75 9.75 6.41421 9.75 6C9.75 5.58579 9.41421 5.25 9 5.25H6ZM6 9.25C5.58579 9.25 5.25 9.58579 5.25 10C5.25 10.4142 5.58579 10.75 6 10.75H14C14.4142 10.75 14.75 10.4142 14.75 10C14.75 9.58579 14.4142 9.25 14 9.25H6ZM6 13.25C5.58579 13.25 5.25 13.5858 5.25 14C5.25 14.4142 5.58579 14.75 6 14.75H9C9.41421 14.75 9.75 14.4142 9.75 14C9.75 13.5858 9.41421 13.25 9 13.25H6Z" fill="#6F727C"/>
</svg>
