<svg width="20" height="20" viewBox="0 0 20 20" fill="none" xmlns="http://www.w3.org/2000/svg">
<path d="M19.8529 6.80373V17.5734C19.8524 18.147 19.6198 18.697 19.2062 19.1026C18.7927 19.5082 18.2319 19.7363 17.6471 19.7369H13.9706C13.5806 19.7369 13.2065 19.5849 12.9307 19.3145C12.6549 19.044 12.5 18.6771 12.5 18.2946V14.3282C12.5 14.137 12.4225 13.9536 12.2846 13.8183C12.1467 13.6831 11.9597 13.6071 11.7647 13.6071H8.08823C7.89322 13.6071 7.7062 13.6831 7.5683 13.8183C7.43041 13.9536 7.35294 14.137 7.35294 14.3282V18.2946C7.35294 18.6771 7.198 19.044 6.92222 19.3145C6.64643 19.5849 6.27238 19.7369 5.88235 19.7369H2.20588C1.62103 19.7363 1.06029 19.5082 0.646733 19.1026C0.233176 18.697 0.000583982 18.147 0 17.5734V6.80373C0.000550214 6.55467 0.0665387 6.30995 0.191599 6.09319C0.316658 5.87643 0.496568 5.69494 0.713971 5.56623L9.16985 0.590264C9.39845 0.455698 9.66004 0.384613 9.92665 0.384613C10.1933 0.384613 10.4549 0.455698 10.6835 0.590264L19.1393 5.56623C19.3567 5.69498 19.5365 5.87649 19.6615 6.09325C19.7865 6.31001 19.8524 6.5547 19.8529 6.80373Z" fill="#A5ACB8"/>
</svg>
