<svg width="20" height="21" viewBox="0 0 20 21" fill="none" xmlns="http://www.w3.org/2000/svg">
<g clip-path="url(#clip0_130_479)">
<path d="M15.9073 15.2624C15.5167 14.8718 14.8836 14.8718 14.493 15.2623C14.1025 15.6529 14.1025 16.286 14.493 16.6766L15.9073 15.2624ZM17.693 19.8765C18.0835 20.267 18.7166 20.267 19.1072 19.8765C19.4977 19.486 19.4977 18.8528 19.1072 18.4623L17.693 19.8765ZM14.493 16.6766L17.693 19.8765L19.1072 18.4623L15.9073 15.2624L14.493 16.6766ZM8.8001 15.7694C5.37593 15.7694 2.6001 12.9935 2.6001 9.56938H0.600098C0.600098 14.0981 4.27136 17.7694 8.8001 17.7694V15.7694ZM15.0001 9.56938C15.0001 12.9935 12.2243 15.7694 8.8001 15.7694V17.7694C13.3288 17.7694 17.0001 14.0981 17.0001 9.56938H15.0001ZM8.8001 3.36938C12.2243 3.36938 15.0001 6.14522 15.0001 9.56938H17.0001C17.0001 5.04065 13.3288 1.36938 8.8001 1.36938V3.36938ZM8.8001 1.36938C4.27136 1.36938 0.600098 5.04065 0.600098 9.56938H2.6001C2.6001 6.14522 5.37593 3.36938 8.8001 3.36938V1.36938Z" fill="white"/>
</g>
<defs>
<clipPath id="clip0_130_479">
<rect width="20" height="20" fill="white" transform="translate(0 0.769409)"/>
</clipPath>
</defs>
</svg>
