<svg width="40" height="40" viewBox="0 0 40 40" fill="none" xmlns="http://www.w3.org/2000/svg">
<rect width="40" height="40" rx="10" fill="url(#paint0_linear_276_2431)"/>
<path fill-rule="evenodd" clip-rule="evenodd" d="M22.6232 12H16.5604C14.0964 12 12.0918 14.0046 12.0918 16.4686V22.5314C12.0918 24.9954 14.0964 27 16.5604 27H22.6232C25.0872 27 27.0918 24.9954 27.0918 22.5314V16.4686C27.0918 14.0046 25.0872 12 22.6232 12ZM25.5816 22.5315C25.5816 24.166 24.2565 25.491 22.622 25.491H16.5592C14.9247 25.491 13.5996 24.166 13.5996 22.5315V16.4686C13.5996 14.8341 14.9247 13.509 16.5592 13.509H22.622C24.2565 13.509 25.5816 14.8341 25.5816 16.4686V22.5315ZM15.7129 19.4999C15.7129 17.3607 17.4532 15.6204 19.5924 15.6204C21.7316 15.6204 23.472 17.3607 23.472 19.4999C23.472 21.639 21.7316 23.3794 19.5924 23.3794C17.4532 23.3794 15.7129 21.639 15.7129 19.4999ZM19.5932 21.8706C18.284 21.8706 17.2227 20.8093 17.2227 19.5001C17.2227 18.1908 18.284 17.1295 19.5932 17.1295C20.9024 17.1295 21.9637 18.1908 21.9637 19.5001C21.9637 20.8092 20.9024 21.8706 19.5932 21.8706ZM23.4784 16.5792C23.9919 16.5792 24.4081 16.163 24.4081 15.6496C24.4081 15.1362 23.9919 14.72 23.4784 14.72C22.965 14.72 22.5488 15.1362 22.5488 15.6496C22.5488 16.163 22.965 16.5792 23.4784 16.5792Z" fill="white"/>
<defs>
<linearGradient id="paint0_linear_276_2431" x1="40" y1="1.45455" x2="-3.87184e-07" y2="38.1818" gradientUnits="userSpaceOnUse">
<stop stop-color="#7024C4"/>
<stop offset="0.415461" stop-color="#C21975"/>
<stop offset="0.702206" stop-color="#C74C4D"/>
<stop offset="1" stop-color="#E09B3D"/>
</linearGradient>
</defs>
</svg>
