<svg width="18" height="18" viewBox="0 0 18 18" fill="none" xmlns="http://www.w3.org/2000/svg">
<path fill-rule="evenodd" clip-rule="evenodd" d="M6.53064 6.47714C6.86635 4.42518 7.46712 2.34233 7.75957 1.39017C8.16301 1.32496 8.57726 1.29102 8.99984 1.29102C9.42242 1.29102 9.83666 1.32496 10.2401 1.39017C10.5326 2.34233 11.1333 4.42518 11.469 6.47714C10.5978 6.61779 9.74665 6.70768 8.99984 6.70768C8.25303 6.70768 7.40191 6.61779 6.53064 6.47714ZM12.6985 6.25003C12.4206 4.56261 11.9756 2.87185 11.6545 1.76016C13.4728 2.42721 14.9709 3.76053 15.8519 5.46466C15.0299 5.70128 13.8981 6.00291 12.6985 6.25003ZM12.8694 7.49096C14.2095 7.21826 15.4675 6.87868 16.336 6.62585C16.5775 7.37292 16.7082 8.17038 16.7082 8.99935C16.7082 9.42193 16.6742 9.83618 16.609 10.2396C15.8534 10.4717 14.382 10.8991 12.7779 11.2336C12.8879 10.4654 12.9582 9.70136 12.9582 8.99935C12.9582 8.51821 12.9252 8.0091 12.8694 7.49096ZM12.554 12.5536C13.96 12.2816 15.3038 11.9241 16.239 11.654C15.4608 13.7754 13.7759 15.4603 11.6545 16.2385C11.9246 15.3033 12.2821 13.9595 12.554 12.5536ZM11.2341 12.7774C10.8996 14.3815 10.4722 15.8529 10.2401 16.6085C9.83667 16.6737 9.42242 16.7077 8.99984 16.7077C8.57726 16.7077 8.16301 16.6737 7.75957 16.6085C7.52748 15.8529 7.10005 14.3815 6.76561 12.7774C7.53374 12.8874 8.29783 12.9577 8.99984 12.9577C9.70185 12.9577 10.4659 12.8874 11.2341 12.7774ZM5.44563 12.5536C5.71758 13.9595 6.0751 15.3033 6.34521 16.2386C4.22378 15.4603 2.53887 13.7754 1.76064 11.654C2.69585 11.9241 4.03971 12.2816 5.44563 12.5536ZM5.22179 11.2336C3.61768 10.8991 2.14624 10.4717 1.39066 10.2396C1.32545 9.83617 1.2915 9.42193 1.2915 8.99935C1.2915 8.17038 1.42215 7.37292 1.66366 6.62585C2.53215 6.87868 3.79022 7.21826 5.13028 7.49096C5.07448 8.0091 5.0415 8.51821 5.0415 8.99935C5.0415 9.70136 5.11176 10.4654 5.22179 11.2336ZM5.30122 6.25003C4.10154 6.00291 2.96973 5.70128 2.14774 5.46466C3.02873 3.76053 4.52689 2.42721 6.34519 1.76016C6.0241 2.87185 5.57907 4.5626 5.30122 6.25003ZM6.2915 8.99935C6.2915 8.59868 6.31741 8.16677 6.36349 7.71634C7.26579 7.86086 8.17581 7.95768 8.99984 7.95768C9.82387 7.95768 10.7339 7.86086 11.6362 7.71634C11.6823 8.16676 11.7082 8.59868 11.7082 8.99935C11.7082 9.7478 11.6179 10.6015 11.4764 11.4759C10.602 11.6174 9.74829 11.7077 8.99984 11.7077C8.25139 11.7077 7.39767 11.6174 6.52324 11.4759C6.3818 10.6015 6.2915 9.7478 6.2915 8.99935ZM8.99984 0.0410156C8.3651 0.0410156 7.74512 0.107129 7.14664 0.233061C4.21431 0.850083 1.81222 2.89926 0.703412 5.61402C0.276487 6.65929 0.0415039 7.80265 0.0415039 8.99935C0.0415039 9.63409 0.107617 10.2541 0.233549 10.8525C0.961799 14.3135 3.68571 17.0374 7.14664 17.7656C7.74512 17.8916 8.3651 17.9577 8.99984 17.9577C9.63458 17.9577 10.2546 17.8916 10.853 17.7656C14.314 17.0374 17.0379 14.3135 17.7661 10.8525C17.8921 10.2541 17.9582 9.63409 17.9582 8.99935C17.9582 7.80359 17.7236 6.66107 17.2973 5.61647C16.1889 2.90049 13.7863 0.85027 10.853 0.233062C10.2546 0.107129 9.63458 0.0410156 8.99984 0.0410156Z" fill="#32374A"/>
</svg>
