<svg width="12" height="16" viewBox="0 0 12 16" fill="none" xmlns="http://www.w3.org/2000/svg">
<path d="M6.00305 0.125C2.90311 0.125 0.376953 2.65235 0.376953 5.75229C0.376953 7.9621 1.70997 10.3852 3.00049 12.321C4.291 14.2568 5.58337 15.6883 5.58337 15.6883C5.63612 15.7467 5.70053 15.7933 5.77244 15.8253C5.84435 15.8572 5.92216 15.8738 6.00085 15.8738C6.07954 15.8738 6.15736 15.8572 6.22927 15.8253C6.30118 15.7933 6.36559 15.7467 6.41833 15.6883C6.41833 15.6883 7.7107 14.2568 9.00122 12.321C10.2917 10.3852 11.6248 7.9621 11.6248 5.75229C11.6248 2.65235 9.10299 0.125 6.00305 0.125ZM6.00305 1.25002C8.49499 1.25002 10.4998 3.26034 10.4998 5.75229C10.4998 7.47997 9.30702 9.83691 8.06628 11.698C7.03437 13.2459 6.32113 14.028 6.00305 14.393C5.68566 14.0288 4.97128 13.2468 3.93872 11.698C2.69799 9.83691 1.50195 7.47997 1.50195 5.75229C1.50195 3.26034 3.51111 1.25002 6.00305 1.25002ZM6.00305 3.50122C4.76707 3.50122 3.75195 4.51631 3.75195 5.75229C3.75195 6.98826 4.76707 8.0022 6.00305 8.0022C7.23903 8.0022 8.25305 6.98826 8.25305 5.75229C8.25305 4.51631 7.23903 3.50122 6.00305 3.50122ZM6.00305 4.62611C6.63104 4.62611 7.12805 5.1243 7.12805 5.75229C7.12805 6.38027 6.63104 6.8772 6.00305 6.87718C5.37507 6.8772 4.87805 6.38027 4.87805 5.75229C4.87805 5.1243 5.37507 4.62611 6.00305 4.62611Z" fill="#6F727C" stroke="#6F727C" stroke-width="0.342857"/>
</svg>
