<svg width="20" height="20" viewBox="0 0 20 20" fill="none" xmlns="http://www.w3.org/2000/svg">
<path d="M8.00195 19V18.25V19ZM7.00195 19V19.75V19ZM1.00195 13H1.75195H1.00195ZM1.00195 7H0.251953H1.00195ZM7.00195 1V0.25V1ZM8.00195 1V1.75V1ZM1.06351 5.21783L0.322745 5.1005L0.322745 5.1005L1.06351 5.21783ZM5.21978 1.06156L5.33711 1.80232L5.21978 1.06156ZM5.21978 18.9384L5.10245 19.6792H5.10246L5.21978 18.9384ZM1.06351 14.7822L0.322744 14.8995L0.322744 14.8995L1.06351 14.7822ZM11.4524 18.6C11.7836 18.3513 11.8504 17.8811 11.6016 17.5499C11.3529 17.2187 10.8827 17.1519 10.5515 17.4007L11.4524 18.6ZM10.5515 2.59931C10.8827 2.84808 11.3529 2.78126 11.6016 2.45007C11.8504 2.11888 11.7836 1.64873 11.4524 1.39996L10.5515 2.59931ZM5.00195 9.25C4.58774 9.25 4.25195 9.58578 4.25195 10C4.25195 10.4142 4.58774 10.75 5.00195 10.75V9.25ZM18.002 10V10.75V10ZM15.4679 5.41232C15.1434 5.15497 14.6716 5.20946 14.4143 5.53403C14.1569 5.8586 14.2114 6.33034 14.536 6.58768L15.4679 5.41232ZM16.7649 7.39785L17.2309 6.81016V6.81016L16.7649 7.39785ZM16.7649 12.6022L17.2309 13.1898L16.7649 12.6022ZM14.536 13.4123C14.2114 13.6697 14.1569 14.1414 14.4143 14.466C14.6716 14.7905 15.1434 14.845 15.4679 14.5877L14.536 13.4123ZM18.9821 9.74933L19.7227 9.63133V9.63133L18.9821 9.74933ZM18.9821 10.2507L19.7227 10.3687V10.3687L18.9821 10.2507ZM19.002 10H19.752H19.002ZM8.00195 18.25H7.00195V19.75H8.00195V18.25ZM1.75195 13L1.75195 7H0.251953L0.251953 13H1.75195ZM7.00195 1.75L8.00195 1.75V0.25L7.00195 0.25V1.75ZM1.75195 7C1.75195 6.04233 1.75428 5.65082 1.80428 5.33515L0.322745 5.1005C0.249626 5.56216 0.251953 6.09965 0.251953 7H1.75195ZM7.00195 0.25C6.10161 0.25 5.56411 0.247672 5.10246 0.320792L5.33711 1.80232C5.65278 1.75233 6.04429 1.75 7.00195 1.75V0.25ZM1.80428 5.33515C2.09231 3.51661 3.51856 2.09035 5.33711 1.80232L5.10246 0.320792C2.64207 0.710478 0.712431 2.64012 0.322745 5.1005L1.80428 5.33515ZM7.00195 18.25C6.04429 18.25 5.65277 18.2477 5.3371 18.1977L5.10246 19.6792C5.56411 19.7523 6.10161 19.75 7.00195 19.75V18.25ZM0.251953 13C0.251953 13.9003 0.249625 14.4378 0.322744 14.8995L1.80428 14.6648C1.75428 14.3492 1.75195 13.9577 1.75195 13H0.251953ZM5.33711 18.1977C3.51856 17.9096 2.09231 16.4834 1.80428 14.6648L0.322744 14.8995C0.712431 17.3599 2.64207 19.2895 5.10245 19.6792L5.33711 18.1977ZM8.00195 19.75C9.29554 19.75 10.4913 19.3219 11.4524 18.6L10.5515 17.4007C9.84128 17.9342 8.95958 18.25 8.00195 18.25V19.75ZM8.00195 1.75C8.95958 1.75 9.84128 2.06583 10.5515 2.59931L11.4524 1.39996C10.4913 0.678064 9.29554 0.25 8.00195 0.25V1.75ZM5.00195 10.75L18.002 10.75V9.25L5.00195 9.25V10.75ZM14.536 6.58768L16.299 7.98553L17.2309 6.81016L15.4679 5.41232L14.536 6.58768ZM16.299 12.0145L14.536 13.4123L15.4679 14.5877L17.2309 13.1898L16.299 12.0145ZM16.299 7.98553C17.0163 8.55429 17.5031 8.94177 17.8308 9.26822C18.1552 9.59132 18.2245 9.76116 18.2414 9.86734L19.7227 9.63133C19.6314 9.05816 19.2951 8.60962 18.8894 8.20551C18.4871 7.80475 17.9195 7.35616 17.2309 6.81016L16.299 7.98553ZM17.2309 13.1898C17.9195 12.6438 18.4871 12.1953 18.8894 11.7945C19.2951 11.3904 19.6314 10.9418 19.7227 10.3687L18.2414 10.1327C18.2245 10.2388 18.1552 10.4087 17.8308 10.7318C17.5031 11.0582 17.0163 11.4457 16.299 12.0145L17.2309 13.1898ZM18.2414 9.86734C18.2485 9.91168 18.252 9.95594 18.252 10H19.752C19.752 9.87662 19.7422 9.75344 19.7227 9.63133L18.2414 9.86734ZM18.252 10C18.252 10.0441 18.2485 10.0883 18.2414 10.1327L19.7227 10.3687C19.7422 10.2466 19.752 10.1234 19.752 10H18.252ZM18.002 10.75H19.002V9.25H18.002V10.75Z" fill="white"/>
</svg>
