<svg width="4" height="20" viewBox="0 0 4 20" fill="none" xmlns="http://www.w3.org/2000/svg">
<path d="M3.99976 10C3.99976 11.1046 3.10433 12 1.99976 12C0.895187 12 -0.000243791 11.1046 -0.000243791 10C-0.000243791 8.89543 0.895187 8 1.99976 8C3.10433 8 3.99976 8.89543 3.99976 10Z" fill="#2D264B"/>
<path d="M3.99976 2C3.99976 3.10457 3.10433 4 1.99976 4C0.895187 4 -0.000243441 3.10457 -0.000243441 2C-0.000243441 0.89543 0.895187 0 1.99976 0C3.10433 0 3.99976 0.89543 3.99976 2Z" fill="#2D264B"/>
<path d="M3.99976 18C3.99976 19.1046 3.10432 20 1.99976 20C0.895186 20 -0.000244141 19.1046 -0.000244141 18C-0.000244141 16.8954 0.895186 16 1.99976 16C3.10432 16 3.99976 16.8954 3.99976 18Z" fill="#2D264B"/>
</svg>
