<svg width="24" height="24" viewBox="0 0 24 24" fill="none" xmlns="http://www.w3.org/2000/svg">
<path d="M19.0886 17.3915C18.62 16.9229 17.8602 16.9228 17.3915 17.3915C16.9229 17.8601 16.9229 18.6199 17.3915 19.0885L19.0886 17.3915ZM21.2314 22.9285C21.7 23.3971 22.4598 23.3971 22.9285 22.9285C23.3971 22.4599 23.3971 21.7001 22.9285 21.2314L21.2314 22.9285ZM17.3915 19.0885L21.2314 22.9285L22.9285 21.2314L19.0886 17.3915L17.3915 19.0885ZM10.56 17.9999C6.45098 17.9999 3.11998 14.6689 3.11998 10.5599H0.719983C0.719983 15.9944 5.1255 20.3999 10.56 20.3999V17.9999ZM18 10.5599C18 14.6689 14.669 17.9999 10.56 17.9999V20.3999C15.9945 20.3999 20.4 15.9944 20.4 10.5599H18ZM10.56 3.11992C14.669 3.11992 18 6.45092 18 10.5599H20.4C20.4 5.12544 15.9945 0.719922 10.56 0.719922V3.11992ZM10.56 0.719922C5.1255 0.719922 0.719983 5.12544 0.719983 10.5599H3.11998C3.11998 6.45092 6.45098 3.11992 10.56 3.11992V0.719922Z" fill="#32374A"/>
</svg>
