<svg width="20" height="19" viewBox="0 0 20 19" fill="none" xmlns="http://www.w3.org/2000/svg">
<path d="M7.0467 7.95499C7.0467 8.45707 6.63968 8.86408 6.13761 8.86408C5.63553 8.86408 5.22852 8.45707 5.22852 7.95499C5.22852 7.45291 5.63553 7.0459 6.13761 7.0459C6.63968 7.0459 7.0467 7.45291 7.0467 7.95499Z" fill="#32374A"/>
<path d="M10.6831 7.95499C10.6831 8.45707 10.276 8.86408 9.77397 8.86408C9.27189 8.86408 8.86488 8.45707 8.86488 7.95499C8.86488 7.45291 9.27189 7.0459 9.77397 7.0459C10.276 7.0459 10.6831 7.45291 10.6831 7.95499Z" fill="#32374A"/>
<path d="M14.3194 7.95499C14.3194 8.45707 13.9124 8.86408 13.4103 8.86408C12.9083 8.86408 12.5012 8.45707 12.5012 7.95499C12.5012 7.45291 12.9083 7.0459 13.4103 7.0459C13.9124 7.0459 14.3194 7.45291 14.3194 7.95499Z" fill="#32374A"/>
<path d="M18.5518 5.81067C18.9705 5.61987 19.5321 5.86812 19.5387 6.32815C19.5455 6.80538 19.5455 7.33459 19.5455 7.92397L19.5455 9.16466C19.5457 10.5725 19.5458 11.4312 19.3343 12.1526C18.8333 13.861 17.4974 15.197 15.789 15.6979C15.0676 15.9094 14.2089 15.9093 12.801 15.9091L12.1686 15.9091L12.1137 15.9092C11.3254 15.9142 10.5574 16.1603 9.91296 16.6144L9.86831 16.6462L7.49492 18.3415C6.12718 19.3185 4.32989 17.9076 4.95413 16.347C5.03803 16.1373 4.88356 15.9091 4.65765 15.9091H4.1106C1.84038 15.9091 7.10319e-08 14.0687 7.10319e-08 11.7985V7.92404C-4.26385e-06 6.67702 -7.5725e-06 5.69935 0.0641925 4.91358C0.129566 4.11345 0.26489 3.45244 0.569739 2.85414C1.07089 1.87057 1.87057 1.07089 2.85414 0.569739C3.45244 0.264889 4.11345 0.129566 4.91358 0.0641925C5.69935 -7.61991e-06 6.67702 -4.31671e-06 7.92404 7.23571e-08H11.6214C12.2108 -2.00216e-06 12.7401 -3.68888e-06 13.2173 0.00677416C13.6773 0.0133076 13.9256 0.574997 13.7348 0.993651C13.6344 1.21402 13.4196 1.37329 13.1775 1.37C12.7171 1.36375 12.1939 1.36364 11.5909 1.36364H7.95455C6.67045 1.36364 5.74838 1.36417 5.02462 1.4233C4.30882 1.48178 3.84724 1.59417 3.47322 1.78475C2.74623 2.15517 2.15517 2.74623 1.78475 3.47322C1.59417 3.84724 1.48178 4.30882 1.4233 5.02462C1.36417 5.74838 1.36364 6.67045 1.36364 7.95455V11.7985C1.36364 13.3156 2.59349 14.5455 4.1106 14.5455H4.65765C5.84828 14.5455 6.66242 15.748 6.22023 16.8534C6.10179 17.1496 6.44281 17.4172 6.70232 17.2319L9.07572 15.5366L9.12748 15.4998C9.99939 14.8854 11.0384 14.5524 12.105 14.5456L12.1686 14.5455H12.6675C14.251 14.5455 14.8966 14.5385 15.4053 14.3894C16.668 14.0191 17.6555 13.0316 18.0257 11.7689C18.1749 11.2603 18.1818 10.6147 18.1818 9.03111V7.95455C18.1818 7.35151 18.1817 6.82831 18.1755 6.368C18.1722 6.12585 18.3314 5.9111 18.5518 5.81067Z" fill="#32374A"/>
</svg>
