<svg width="20" height="21" viewBox="0 0 20 21" fill="none" xmlns="http://www.w3.org/2000/svg">
<g clip-path="url(#clip0_757_4302)">
<path d="M6.73633 13.3794C6.37614 13.3794 6.08415 13.6714 6.08415 14.0316C6.08415 14.3918 6.37614 14.6838 6.73633 14.6838H13.6929C14.053 14.6838 14.345 14.3918 14.345 14.0316C14.345 13.6714 14.053 13.3794 13.6929 13.3794H6.73633Z" fill="#2D264B"/>
<path fill-rule="evenodd" clip-rule="evenodd" d="M10.0739 0.335952C8.59019 0.335718 7.68479 0.335576 6.93042 0.580684C5.40823 1.07527 4.21481 2.26869 3.72022 3.79088C3.69737 3.86122 3.67673 3.93233 3.65808 4.00456C3.29093 4.2914 2.96544 4.62834 2.69124 5.00574C2.18183 5.70689 1.95372 6.52809 1.84392 7.5416C1.73632 8.53476 1.73632 9.78659 1.73633 11.3836V11.4623C1.73632 13.0593 1.73632 14.3111 1.84392 15.3042C1.95372 16.3178 2.18183 17.139 2.69124 17.8401C2.99964 18.2646 3.37293 18.6379 3.7974 18.9463C4.49855 19.4557 5.31975 19.6838 6.33326 19.7936C7.32641 19.9012 8.57821 19.9012 10.1752 19.9012H10.254C11.8509 19.9012 13.1028 19.9012 14.0959 19.7936C15.1094 19.6838 15.9306 19.4557 16.6318 18.9463C17.0562 18.6379 17.4295 18.2646 17.7379 17.8401C18.2474 17.139 18.4755 16.3178 18.5853 15.3042C18.6929 14.3111 18.6929 13.0593 18.6929 11.4624V11.3836C18.6929 9.78661 18.6929 8.53474 18.5853 7.5416C18.4755 6.52809 18.2474 5.70689 17.7379 5.00574C17.4638 4.62838 17.1383 4.29148 16.7712 4.00466C16.7526 3.93239 16.7319 3.86125 16.709 3.79088C16.2145 2.26869 15.021 1.07527 13.4989 0.580684C12.7445 0.335576 11.8391 0.335718 10.3554 0.335952H10.0739ZM6.38692 3.04657C6.06189 3.08023 5.75637 3.12563 5.46809 3.18806C5.92212 2.55243 6.57217 2.06856 7.33349 1.82119C7.86541 1.64836 8.54537 1.64031 10.2146 1.64031C11.8839 1.64031 12.5639 1.64836 13.0958 1.82119C13.8571 2.06856 14.5072 2.55244 14.9612 3.18808C14.6729 3.12564 14.3674 3.08024 14.0424 3.04658C13.0583 2.94465 11.8222 2.94466 10.2518 2.94466H10.1774C8.60707 2.94466 7.37093 2.94465 6.38692 3.04657ZM4.61193 4.92091C5.0539 4.61561 5.62238 4.43708 6.5213 4.34397C7.43031 4.24983 8.59907 4.24901 10.2146 4.24901C11.8302 4.24901 12.9989 4.24983 13.908 4.34398C14.8069 4.43709 15.3754 4.61564 15.8173 4.92097C15.8193 4.92235 15.8213 4.92374 15.8233 4.92513C15.8373 4.93487 15.8513 4.94476 15.8651 4.95482C16.1788 5.18276 16.4548 5.45867 16.6827 5.77241C17.0036 6.21415 17.1907 6.77956 17.2885 7.68209C17.3876 8.59683 17.3885 9.77808 17.3885 11.4229C17.3885 13.0678 17.3876 14.249 17.2885 15.1638C17.1907 16.0663 17.0036 16.6317 16.6827 17.0734C16.4548 17.3872 16.1788 17.6631 15.8651 17.891C15.4234 18.212 14.858 18.3991 13.9554 18.4968C13.0407 18.5959 11.8594 18.5968 10.2146 18.5968C8.56974 18.5968 7.3885 18.5959 6.47376 18.4968C5.57123 18.3991 5.00582 18.212 4.56408 17.891C4.25034 17.6631 3.97443 17.3872 3.74648 17.0734C3.42554 16.6317 3.23846 16.0663 3.14068 15.1638C3.04157 14.249 3.04068 13.0678 3.04068 11.4229C3.04068 9.77808 3.04157 8.59683 3.14068 7.68209C3.23846 6.77956 3.42554 6.21415 3.74648 5.77241C3.97443 5.45867 4.25034 5.18276 4.56408 4.95482C4.57992 4.94331 4.59587 4.93201 4.61193 4.92091Z" fill="#2D264B"/>
</g>
<defs>
<clipPath id="clip0_757_4302">
<rect width="20" height="20" fill="white" transform="translate(0 0.335938)"/>
</clipPath>
</defs>
</svg>
