<svg width="20" height="20" viewBox="0 0 20 20" fill="none" xmlns="http://www.w3.org/2000/svg">
<path fill-rule="evenodd" clip-rule="evenodd" d="M11.7827 6.61986C11.0857 6.19088 10.5166 5.84061 10.0473 5.60993C9.57576 5.37812 9.08476 5.20329 8.568 5.26118C7.8211 5.34486 7.15799 5.76076 6.73403 6.38278C6.44629 6.80493 6.34559 7.31731 6.29869 7.86218C6.25194 8.40542 6.25194 9.10167 6.25195 9.96404V10.0359C6.25194 10.8983 6.25194 11.5946 6.29869 12.1378C6.34559 12.6827 6.44629 13.1951 6.73403 13.6172C7.15799 14.2392 7.8211 14.6551 8.568 14.7388C9.08476 14.7967 9.57576 14.6219 10.0473 14.3901C10.5166 14.1594 11.0857 13.8091 11.7827 13.3801L11.8487 13.3395C12.5464 12.9101 13.1154 12.56 13.5368 12.2426C13.9647 11.9204 14.3356 11.5645 14.5348 11.0877C14.8244 10.3944 14.8244 9.60563 14.5348 8.91227C14.3356 8.43552 13.9647 8.07963 13.5368 7.7574C13.1154 7.44001 12.5464 7.08988 11.8487 6.66051L11.7827 6.61986ZM8.73501 6.75186C8.81351 6.74306 8.98285 6.7581 9.38554 6.95606C9.78304 7.15147 10.2914 7.46335 11.0299 7.91788C11.7681 8.37221 12.2761 8.68578 12.6344 8.95561C12.9928 9.22553 13.1063 9.38429 13.1506 9.49039C13.2857 9.81382 13.2857 10.1862 13.1506 10.5096C13.1063 10.6157 12.9928 10.7745 12.6344 11.0444C12.2761 11.3142 11.7681 11.6278 11.0299 12.0821C10.2914 12.5366 9.78304 12.8485 9.38554 13.0439C8.98285 13.2419 8.81351 13.2569 8.73501 13.2481C8.4435 13.2155 8.16327 13.0508 7.9735 12.7724C7.90942 12.6784 7.83423 12.4862 7.79317 12.0092C7.75262 11.538 7.75195 10.9068 7.75195 10C7.75195 9.09324 7.75262 8.46196 7.79317 7.9908C7.83423 7.51375 7.90942 7.32161 7.9735 7.22759C8.16327 6.94918 8.4435 6.78452 8.73501 6.75186Z" fill="#2D264B"/>
<path fill-rule="evenodd" clip-rule="evenodd" d="M14.4655 0.373728C13.3233 0.249985 11.8837 0.249992 10.0472 0.25H9.9567C8.12017 0.249992 6.68057 0.249985 5.53843 0.373728C4.37289 0.500006 3.42851 0.762324 2.62219 1.34815C2.13404 1.70281 1.70476 2.13209 1.35011 2.62024C0.764277 3.42656 0.501959 4.37094 0.375681 5.53648C0.251939 6.67861 0.251945 8.11821 0.251953 9.95475V10.0452C0.251945 11.8818 0.251939 13.3214 0.375681 14.4635C0.501959 15.6291 0.764277 16.5734 1.35011 17.3798C1.70476 17.8679 2.13404 18.2972 2.62219 18.6518C3.42851 19.2377 4.37289 19.5 5.53843 19.6263C6.68054 19.75 8.12012 19.75 9.95661 19.75H10.0472C11.8837 19.75 13.3234 19.75 14.4655 19.6263C15.631 19.5 16.5754 19.2377 17.3817 18.6518C17.8699 18.2972 18.2991 17.8679 18.6538 17.3798C19.2396 16.5734 19.5019 15.6291 19.6282 14.4635C19.752 13.3214 19.752 11.8818 19.752 10.0453V9.95473C19.752 8.11824 19.752 6.67859 19.6282 5.53648C19.5019 4.37094 19.2396 3.42656 18.6538 2.62024C18.2991 2.13209 17.8699 1.70281 17.3817 1.34815C16.5754 0.762324 15.631 0.500006 14.4655 0.373728ZM3.50387 2.56168C4.01187 2.19259 4.66209 1.97745 5.7 1.865C6.75195 1.75103 8.11038 1.75 10.002 1.75C11.8935 1.75 13.252 1.75103 14.3039 1.865C15.3418 1.97745 15.992 2.19259 16.5 2.56168C16.8608 2.82382 17.1781 3.14111 17.4403 3.50191C17.8094 4.00992 18.0245 4.66013 18.137 5.69804C18.2509 6.74999 18.252 8.10843 18.252 10C18.252 11.8916 18.2509 13.25 18.137 14.302C18.0245 15.3399 17.8094 15.9901 17.4403 16.4981C17.1781 16.8589 16.8608 17.1762 16.5 17.4383C15.992 17.8074 15.3418 18.0225 14.3039 18.135C13.252 18.249 11.8935 18.25 10.002 18.25C8.11038 18.25 6.75195 18.249 5.7 18.135C4.66209 18.0225 4.01187 17.8074 3.50387 17.4383C3.14306 17.1762 2.82577 16.8589 2.56363 16.4981C2.19454 15.9901 1.97941 15.3399 1.86695 14.302C1.75298 13.25 1.75195 11.8916 1.75195 10C1.75195 8.10843 1.75298 6.74999 1.86695 5.69804C1.97941 4.66013 2.19454 4.00992 2.56363 3.50191C2.82577 3.14111 3.14306 2.82382 3.50387 2.56168Z" fill="#2D264B"/>
</svg>
