<svg width="20" height="19" viewBox="0 0 20 19" fill="none" xmlns="http://www.w3.org/2000/svg">
<path d="M3.72809 16.791L4.06859 16.1227L3.72809 16.791ZM1.54301 14.6059L2.21127 14.2654L1.54301 14.6059ZM18.4531 14.6059L17.7848 14.2654L18.4531 14.6059ZM16.268 16.791L15.9275 16.1227L16.268 16.791ZM16.268 1.8809L15.9275 2.54916L16.268 1.8809ZM18.4531 4.06598L17.7848 4.40648L18.4531 4.06598ZM3.72809 1.8809L4.06859 2.54916L3.72809 1.8809ZM1.54301 4.06598L2.21127 4.40648L1.54301 4.06598ZM18.987 7.33594L19.7369 7.32158L18.987 7.33594ZM1.00909 7.33594L0.259232 7.32158L1.00909 7.33594ZM8.99805 2.08594H10.998V0.585937H8.99805V2.08594ZM10.998 16.5859H8.99805V18.0859H10.998V16.5859ZM8.99805 16.5859C7.58554 16.5859 6.57127 16.5854 5.77513 16.5203C4.98775 16.456 4.48002 16.3323 4.06859 16.1227L3.3876 17.4592C4.04573 17.7946 4.77284 17.9434 5.65298 18.0153C6.52437 18.0865 7.61029 18.0859 8.99805 18.0859V16.5859ZM0.248047 9.33594C0.248047 10.7237 0.247464 11.8096 0.318659 12.681C0.390569 13.5611 0.539425 14.2883 0.874759 14.9464L2.21127 14.2654C2.00164 13.854 1.87801 13.3462 1.81368 12.5589C1.74863 11.7627 1.74805 10.7484 1.74805 9.33594H0.248047ZM4.06859 16.1227C3.2689 15.7153 2.61873 15.0651 2.21127 14.2654L0.874759 14.9464C1.42603 16.0283 2.30567 16.908 3.3876 17.4592L4.06859 16.1227ZM18.248 9.33594C18.248 10.7484 18.2475 11.7627 18.1824 12.5589C18.1181 13.3462 17.9945 13.854 17.7848 14.2654L19.1213 14.9464C19.4567 14.2883 19.6055 13.5611 19.6774 12.681C19.7486 11.8096 19.748 10.7237 19.748 9.33594H18.248ZM10.998 18.0859C12.3858 18.0859 13.4717 18.0865 14.3431 18.0153C15.2233 17.9434 15.9504 17.7946 16.6085 17.4592L15.9275 16.1227C15.5161 16.3323 15.0083 16.456 14.221 16.5203C13.4248 16.5854 12.4106 16.5859 10.998 16.5859V18.0859ZM17.7848 14.2654C17.3774 15.0651 16.7272 15.7153 15.9275 16.1227L16.6085 17.4592C17.6904 16.908 18.5701 16.0283 19.1213 14.9464L17.7848 14.2654ZM10.998 2.08594C12.4106 2.08594 13.4248 2.08652 14.221 2.15157C15.0083 2.2159 15.5161 2.33953 15.9275 2.54916L16.6085 1.21265C15.9504 0.877316 15.2233 0.72846 14.3431 0.656549C13.4717 0.585354 12.3858 0.585937 10.998 0.585937V2.08594ZM15.9275 2.54916C16.7272 2.95662 17.3774 3.60679 17.7848 4.40648L19.1213 3.72549C18.5701 2.64356 17.6904 1.76392 16.6085 1.21265L15.9275 2.54916ZM8.99805 0.585937C7.61029 0.585937 6.52437 0.585354 5.65298 0.656549C4.77284 0.72846 4.04573 0.877316 3.3876 1.21265L4.06859 2.54916C4.48002 2.33953 4.98775 2.2159 5.77513 2.15157C6.57127 2.08652 7.58554 2.08594 8.99805 2.08594V0.585937ZM3.3876 1.21265C2.30567 1.76392 1.42603 2.64356 0.874759 3.72549L2.21127 4.40648C2.61873 3.60679 3.2689 2.95662 4.06859 2.54916L3.3876 1.21265ZM19.748 9.33594C19.748 8.57457 19.7481 7.90728 19.7369 7.32158L18.2371 7.35029C18.248 7.91865 18.248 8.57024 18.248 9.33594H19.748ZM19.7369 7.32158C19.7074 5.78531 19.6041 4.67299 19.1213 3.72549L17.7848 4.40648C18.0948 5.01484 18.2076 5.80812 18.2371 7.35029L19.7369 7.32158ZM18.987 6.58594H1.00909V8.08594H18.987V6.58594ZM1.74805 9.33594C1.74805 8.57024 1.74808 7.91865 1.75896 7.35029L0.259232 7.32158C0.248018 7.90728 0.248047 8.57457 0.248047 9.33594H1.74805ZM1.75896 7.35029C1.78848 5.80812 1.90129 5.01484 2.21127 4.40648L0.874759 3.72549C0.391986 4.67299 0.288644 5.78531 0.259232 7.32158L1.75896 7.35029Z" fill="#2D264B"/>
</svg>
