<svg width="20" height="20" viewBox="0 0 20 20" fill="none" xmlns="http://www.w3.org/2000/svg">
<g clip-path="url(#clip0_1569_12132)">
<path fill-rule="evenodd" clip-rule="evenodd" d="M14.7011 0C14.0893 0 13.5839 0.260747 13.1056 0.632503C12.6524 0.984709 12.1492 1.4973 11.5457 2.112L6.33971 7.41486C5.93994 7.8214 5.62384 8.14285 5.42998 8.55371C5.23612 8.96458 5.18716 9.41681 5.12524 9.98876L5.10843 10.1433C4.9926 11.2049 4.89713 12.0799 4.91898 12.7691C4.94184 13.49 5.09477 14.1503 5.60141 14.6663C6.10806 15.1824 6.75628 15.3382 7.46395 15.3615C8.1406 15.3837 8.9996 15.2865 10.0417 15.1685L10.1935 15.1514C10.755 15.0883 11.199 15.0384 11.6023 14.841C12.0057 14.6435 12.3213 14.3215 12.7204 13.9143L17.9263 8.61138C18.5298 7.99671 19.033 7.48415 19.3788 7.02252C19.7438 6.53527 19.9998 6.02048 19.9998 5.39726C19.9998 4.77405 19.7438 4.25925 19.3788 3.77201C19.033 3.31038 18.5298 2.79783 17.9263 2.18316L17.8565 2.11204C17.2531 1.49732 16.7499 0.984716 16.2967 0.632503C15.8183 0.260747 15.3129 0 14.7011 0ZM17.3865 7.10638L13.0232 2.66193C13.4085 2.27525 13.7065 1.9909 13.9698 1.78631C14.3214 1.51305 14.5261 1.45129 14.7011 1.45129C14.8762 1.45129 15.0808 1.51305 15.4324 1.78631C15.8005 2.07234 16.2365 2.51428 16.884 3.1738C17.5314 3.83332 17.9653 4.27743 18.2461 4.65233C18.5144 5.01048 18.575 5.21895 18.575 5.39726C18.575 5.57558 18.5144 5.78405 18.2461 6.1422C18.0452 6.41035 17.7661 6.71391 17.3865 7.10638ZM12.0145 3.68691L16.3802 8.13384L11.7816 12.8181C11.2806 13.3284 11.1421 13.4561 10.9851 13.5329C10.8282 13.6098 10.6438 13.6401 9.93964 13.7198C8.82833 13.8456 8.07195 13.9294 7.50994 13.9109C6.96703 13.8931 6.74785 13.7817 6.60888 13.6401C6.4699 13.4986 6.36054 13.2753 6.34301 12.7223C6.32486 12.1498 6.40714 11.3794 6.53062 10.2474C6.60886 9.53009 6.63867 9.34231 6.71413 9.1824C6.78958 9.02248 6.91491 8.88146 7.4159 8.37115L12.0145 3.68691Z" fill="#32374A"/>
<path d="M7.3696 2.59148C7.76301 2.58667 8.07811 2.25792 8.07339 1.85719C8.06867 1.45646 7.74593 1.13549 7.35252 1.1403C5.0477 1.16844 3.46568 1.2969 2.25111 2.19576C1.78745 2.5389 1.3797 2.95424 1.04283 3.42653C0.486385 4.20667 0.237223 5.12038 0.117278 6.24807C-0.000257941 7.35311 -0.000251771 8.74596 -0.000244015 10.5229V10.6104C-0.000251771 12.3873 -0.000257941 13.7802 0.117279 14.8852C0.237223 16.0129 0.486385 16.9266 1.04283 17.7067C1.3797 18.179 1.78745 18.5944 2.25111 18.9375C3.017 19.5043 3.91401 19.7581 5.02109 19.8803C6.10593 20 7.4733 20 9.21768 20H9.30375C11.0481 20 12.4156 20 13.5004 19.8803C14.6075 19.7581 15.5045 19.5043 16.2704 18.9375C16.734 18.5944 17.1418 18.179 17.4787 17.7067C18.3611 16.4696 18.4872 14.8581 18.5148 12.5104C18.5196 12.1097 18.2045 11.7809 17.8111 11.7761C17.4176 11.7713 17.0949 12.0923 17.0902 12.493C17.0617 14.9126 16.9018 16.0464 16.326 16.8537C16.077 17.2028 15.7756 17.5098 15.4329 17.7634C14.9504 18.1205 14.3328 18.3286 13.3469 18.4374C12.3478 18.5477 11.0574 18.5487 9.26075 18.5487C7.46405 18.5487 6.17374 18.5477 5.17456 18.4374C4.1887 18.3286 3.5711 18.1205 3.08857 17.7634C2.74586 17.5098 2.44448 17.2028 2.19549 16.8537C1.84492 16.3622 1.64057 15.7331 1.53376 14.7289C1.4255 13.7111 1.42452 12.3968 1.42452 10.5666C1.42452 8.73649 1.4255 7.42217 1.53376 6.40439C1.64057 5.40018 1.84492 4.77108 2.19549 4.27958C2.44448 3.93049 2.74586 3.6235 3.08857 3.36988C3.88108 2.78337 4.99422 2.62048 7.3696 2.59148Z" fill="#32374A"/>
</g>
<defs>
<clipPath id="clip0_1569_12132">
<rect width="20" height="20" fill="white"/>
</clipPath>
</defs>
</svg>
