<svg width="20" height="20" viewBox="0 0 20 20" fill="none" xmlns="http://www.w3.org/2000/svg">
<path d="M16.5618 6.30776L16.4552 6.98119L16.5618 6.30776ZM12.7834 2.52934L12.11 2.636V2.636L12.7834 2.52934ZM3.69206 18.2229L4.09283 17.6713L3.69206 18.2229ZM2.68646 17.2173L3.23807 16.8165L2.68646 17.2173ZM17.3139 17.2173L16.7623 16.8165L17.3139 17.2173ZM16.3083 18.2229L15.9075 17.6713L16.3083 18.2229ZM16.3083 1.77728L16.7091 1.22568L16.3083 1.77728ZM17.3139 2.78288L17.8655 2.38212L17.3139 2.78288ZM3.69206 1.77728L4.09283 2.32889L3.69206 1.77728ZM2.68646 2.78288L3.23807 3.18365L2.68646 2.78288ZM12.7274 0.935478L12.7508 0.25406L12.7274 0.935478ZM18.1557 6.36372L18.8371 6.34038L18.1557 6.36372ZM6.36381 12.9546C5.98726 12.9546 5.682 13.2599 5.682 13.6365C5.682 14.013 5.98726 14.3183 6.36381 14.3183V12.9546ZM9.09109 14.3183C9.46764 14.3183 9.7729 14.013 9.7729 13.6365C9.7729 13.2599 9.46764 12.9546 9.09109 12.9546V14.3183ZM6.36381 9.31827C5.98726 9.31827 5.682 9.62353 5.682 10.0001C5.682 10.3766 5.98726 10.6819 6.36381 10.6819V9.31827ZM13.6365 10.6819C14.0131 10.6819 14.3184 10.3766 14.3184 10.0001C14.3184 9.62353 14.0131 9.31827 13.6365 9.31827V10.6819ZM6.36381 5.68191C5.98726 5.68191 5.682 5.98717 5.682 6.36372C5.682 6.74028 5.98726 7.04554 6.36381 7.04554V5.68191ZM9.09109 7.04554C9.46764 7.04554 9.7729 6.74028 9.7729 6.36372C9.7729 5.98717 9.46764 5.68191 9.09109 5.68191V7.04554ZM16.6685 5.63434C15.0153 5.37249 13.7187 4.0759 13.4568 2.42268L12.11 2.636C12.4642 4.87271 14.2185 6.62693 16.4552 6.98119L16.6685 5.63434ZM17.5002 9.091V10.9092H18.8638V9.091H17.5002ZM2.50018 10.9092V9.091H1.13654V10.9092H2.50018ZM10.0002 18.4092C8.28057 18.4092 7.04563 18.4082 6.08931 18.3046C5.14575 18.2024 4.55465 18.0068 4.09283 17.6713L3.2913 18.7745C4.02432 19.3071 4.88285 19.5455 5.94243 19.6603C6.98925 19.7738 8.31094 19.7728 10.0002 19.7728V18.4092ZM1.13654 10.9092C1.13654 12.5984 1.13561 13.9201 1.24902 14.9669C1.36382 16.0265 1.60229 16.885 2.13486 17.6181L3.23807 16.8165C2.90253 16.3547 2.70695 15.7636 2.60472 14.82C2.50111 13.8637 2.50018 12.6288 2.50018 10.9092H1.13654ZM4.09283 17.6713C3.76482 17.433 3.47637 17.1445 3.23807 16.8165L2.13486 17.6181C2.45728 18.0618 2.84753 18.4521 3.2913 18.7745L4.09283 17.6713ZM17.5002 10.9092C17.5002 12.6288 17.4992 13.8637 17.3956 14.82C17.2934 15.7636 17.0978 16.3547 16.7623 16.8165L17.8655 17.6181C18.3981 16.885 18.6365 16.0265 18.7513 14.9669C18.8647 13.9201 18.8638 12.5984 18.8638 10.9092H17.5002ZM10.0002 19.7728C11.6894 19.7728 13.0111 19.7738 14.0579 19.6603C15.1175 19.5455 15.976 19.3071 16.7091 18.7745L15.9075 17.6713C15.4457 18.0068 14.8546 18.2024 13.911 18.3046C12.9547 18.4082 11.7198 18.4092 10.0002 18.4092V19.7728ZM16.7623 16.8165C16.524 17.1445 16.2355 17.433 15.9075 17.6713L16.7091 18.7745C17.1528 18.4521 17.5431 18.0618 17.8655 17.6181L16.7623 16.8165ZM15.9075 2.32889C16.2355 2.56719 16.524 2.85564 16.7623 3.18365L17.8655 2.38212C17.5431 1.93835 17.1528 1.5481 16.7091 1.22568L15.9075 2.32889ZM10.0002 0.227362C8.31094 0.227362 6.98925 0.226426 5.94243 0.339841C4.88285 0.45464 4.02432 0.69311 3.2913 1.22568L4.09283 2.32889C4.55465 1.99335 5.14575 1.79777 6.08931 1.69554C7.04563 1.59193 8.28057 1.591 10.0002 1.591V0.227362ZM2.50018 9.091C2.50018 7.37139 2.50111 6.13645 2.60472 5.18013C2.70695 4.23657 2.90253 3.64547 3.23807 3.18365L2.13486 2.38212C1.60229 3.11514 1.36382 3.97367 1.24902 5.03325C1.13561 6.08007 1.13654 7.40176 1.13654 9.091H2.50018ZM3.2913 1.22568C2.84753 1.5481 2.45728 1.93835 2.13486 2.38212L3.23807 3.18365C3.47637 2.85564 3.76482 2.56719 4.09283 2.32889L3.2913 1.22568ZM10.0002 1.591C11.0666 1.591 11.9507 1.59108 12.7041 1.6169L12.7508 0.25406C11.969 0.227276 11.0591 0.227362 10.0002 0.227362V1.591ZM12.7041 1.6169C14.3904 1.67467 15.2661 1.86288 15.9075 2.32889L16.7091 1.22568C15.7057 0.496722 14.4539 0.312411 12.7508 0.25406L12.7041 1.6169ZM12.0456 0.935483C12.0456 1.73755 12.0441 2.22022 12.11 2.636L13.4568 2.42268C13.4119 2.13916 13.4093 1.78752 13.4093 0.935473L12.0456 0.935483ZM18.8638 9.091C18.8638 8.03211 18.8639 7.12213 18.8371 6.34038L17.4743 6.38707C17.5001 7.1405 17.5002 8.02457 17.5002 9.091H18.8638ZM18.8371 6.34038C18.7788 4.63725 18.5945 3.38545 17.8655 2.38212L16.7623 3.18365C17.2283 3.82505 17.4165 4.70077 17.4743 6.38707L18.8371 6.34038ZM18.1557 5.68191C17.3037 5.6819 16.952 5.67924 16.6685 5.63434L16.4552 6.98119C16.871 7.04704 17.3536 7.04554 18.1557 7.04554L18.1557 5.68191ZM6.36381 14.3183H9.09109V12.9546H6.36381V14.3183ZM6.36381 10.6819H13.6365V9.31827H6.36381V10.6819ZM6.36381 7.04554H9.09109V5.68191H6.36381V7.04554Z" fill="#32374A"/>
</svg>
