<svg width="22" height="25" viewBox="0 0 22 25" fill="none" xmlns="http://www.w3.org/2000/svg">
<path d="M1.97965 17.1948L2.77714 16.808L1.97965 17.1948ZM2.93567 12.1408L3.53678 12.7922L2.93567 12.1408ZM4.29099 8.43468L3.41147 8.54462H3.41147L4.29099 8.43468ZM19.1044 12.2843L19.7076 11.6348L19.7076 11.6348L19.1044 12.2843ZM19.8394 18.0044L19.0917 17.5285L19.8394 18.0044ZM17.6214 8.30326L18.5009 8.4132L17.6214 8.30326ZM19.0526 12.2361L18.4494 12.8856L18.4494 12.8856L19.0526 12.2361ZM2.10179 17.4466L1.3043 17.8335H1.3043L2.10179 17.4466ZM17.6978 7.69234L16.8183 7.5824V7.5824L17.6978 7.69234ZM4.1972 7.6844L5.07672 7.57446L4.1972 7.6844ZM6.96358 20.9011L6.19796 21.3477L6.96358 20.9011ZM7.25647 19.6441C7.00982 19.2213 6.46708 19.0785 6.04424 19.3251C5.6214 19.5718 5.47857 20.1145 5.72523 20.5373L7.25647 19.6441ZM16.711 20.5373C16.9577 20.1145 16.8149 19.5718 16.392 19.3251C15.9692 19.0785 15.4264 19.2213 15.1798 19.6441L16.711 20.5373ZM15.4727 20.9011L16.2383 21.3477V21.3477L15.4727 20.9011ZM9.93772 2.068H11.9503V0.295277H9.93772V2.068ZM16.0386 19.2044H6.32312V20.9771H16.0386V19.2044ZM16.8183 7.5824L16.7419 8.19332L18.5009 8.4132L18.5773 7.80228L16.8183 7.5824ZM18.4494 12.8856L18.5013 12.9337L19.7076 11.6348L19.6557 11.5866L18.4494 12.8856ZM5.17051 8.32474L5.07672 7.57446L3.31768 7.79434L3.41147 8.54462L5.17051 8.32474ZM2.89928 17.0598L2.77714 16.808L1.18215 17.5816L1.3043 17.8335L2.89928 17.0598ZM2.77714 16.808C2.11759 15.4483 2.42616 13.8171 3.53678 12.7922L2.33457 11.4894C0.649679 13.0442 0.181566 15.5189 1.18215 17.5816L2.77714 16.808ZM3.41147 8.54462C3.5487 9.64247 3.14768 10.7391 2.33457 11.4894L3.53678 12.7922C4.77031 11.6539 5.3787 9.99027 5.17051 8.32474L3.41147 8.54462ZM18.5013 12.9337C19.781 14.1222 20.0294 16.0551 19.0917 17.5285L20.5872 18.4803C21.9842 16.2852 21.6142 13.4054 19.7076 11.6348L18.5013 12.9337ZM16.7419 8.19332C16.5235 9.94097 17.1588 11.687 18.4494 12.8856L19.6557 11.5866C18.7829 10.776 18.3532 9.59515 18.5009 8.4132L16.7419 8.19332ZM6.32312 19.2044C4.86526 19.2044 3.53554 18.3715 2.89928 17.0598L1.3043 17.8335C2.23695 19.7562 4.18612 20.9771 6.32312 20.9771V19.2044ZM16.0386 20.9771C17.8819 20.9771 19.5975 20.0354 20.5872 18.4803L19.0917 17.5285C18.4274 18.5723 17.2759 19.2044 16.0386 19.2044V20.9771ZM11.9503 2.068C14.9011 2.068 17.1843 4.6543 16.8183 7.5824L18.5773 7.80228C19.0756 3.81612 15.9674 0.295277 11.9503 0.295277V2.068ZM9.93772 0.295277C5.92479 0.295277 2.81994 3.8124 3.31768 7.79434L5.07672 7.57446C4.71124 4.65058 6.99109 2.068 9.93772 2.068V0.295277ZM7.7292 20.4545L7.25647 19.6441L5.72523 20.5373L6.19796 21.3477L7.7292 20.4545ZM15.1798 19.6441L14.707 20.4545L16.2383 21.3477L16.711 20.5373L15.1798 19.6441ZM6.19796 21.3477C7.3949 23.3996 9.25981 24.5226 11.2181 24.5226C13.1764 24.5226 15.0414 23.3996 16.2383 21.3477L14.707 20.4545C13.7767 22.0494 12.4507 22.7498 11.2181 22.7498C9.98553 22.7498 8.65953 22.0494 7.7292 20.4545L6.19796 21.3477Z" fill="white"/>
</svg>
