<svg width="187" height="159" viewBox="0 0 187 159" fill="none" xmlns="http://www.w3.org/2000/svg">
<path d="M91.9883 40.2168C93.8672 37.6487 94.9397 34.5468 95.5077 31.4C96.0758 28.2531 96.1632 25.0398 96.2348 21.8413C96.4875 21.8777 96.7093 21.7083 96.9619 21.7447H120.373C120.472 27.8253 119.477 34.2524 117.231 39.8903L91.9883 40.2168Z" fill="#FFB05C"/>
<path d="M106.053 24.3824L106.107 17.3492L109.948 17.2393L109.84 24.3824H106.053Z" fill="#FFE8D1"/>
<path d="M4.54883 63.294C6.42775 60.7259 7.50026 57.624 8.06829 54.4772C8.63632 51.3303 8.72374 48.117 8.79537 44.9185C9.048 44.9549 9.26982 44.7856 9.52244 44.8219H32.9337C33.0327 50.9025 32.0372 57.3296 29.792 62.9675L4.54883 63.294Z" fill="#FFB05C"/>
<path d="M18.6113 47.4596L18.6656 40.4264L22.507 40.3165L22.3992 47.4596H18.6113Z" fill="#FFE8D1"/>
<path d="M15 22.9775C16.8789 20.4094 17.9514 17.3075 18.5195 14.1607C19.0875 11.0138 19.1749 7.80047 19.2465 4.60199C19.4992 4.63836 19.721 4.46903 19.9736 4.5054H43.3849C43.4838 10.586 42.4883 17.013 40.2432 22.6509L15 22.9775Z" fill="#7EB291"/>
<path d="M29.0625 7.14302L29.1168 0.109823L32.9582 -6.10352e-05L32.8504 7.14302H29.0625Z" fill="#FFE8D1"/>
<path d="M118.719 54.8323C120.598 52.2642 121.67 49.1624 122.238 46.0155C122.806 42.8687 122.894 39.6553 122.965 36.4569C123.218 36.4932 123.44 36.3239 123.692 36.3603H147.104C147.203 42.4408 146.207 48.8679 143.962 54.5058L118.719 54.8323Z" fill="#FF9FC6"/>
<path d="M132.781 38.9979L132.836 31.9647L136.677 31.8549L136.569 38.9979H132.781Z" fill="#FFE8D1"/>
<path d="M65.2978 72.1046C65.2978 72.1046 81.2989 76.4676 88.4241 84.9091C95.5497 93.3505 100.696 138.506 100.696 138.506H6.34961C6.34961 138.506 8.32904 92.1448 17.0378 83.9713C25.7465 75.7978 46.1994 70.7062 46.1994 70.7062L65.2978 72.1046Z" fill="#FFE8D1"/>
<path d="M35.5766 131.442C35.4515 131.442 35.3479 131.343 35.3413 131.216L33.9553 102.273C33.9492 102.142 34.0493 102.03 34.1787 102.023C34.3154 102.016 34.4186 102.118 34.4256 102.249L35.8115 131.192C35.8177 131.324 35.7176 131.435 35.5882 131.442C35.584 131.442 35.5805 131.442 35.5766 131.442Z" fill="#1C1D38"/>
<path d="M82.4868 131.442C82.3616 131.442 82.258 131.343 82.2515 131.216L80.8655 102.273C80.8593 102.142 80.9595 102.03 81.0889 102.023C81.231 102.016 81.3292 102.118 81.3357 102.249L82.7217 131.192C82.7279 131.324 82.6277 131.435 82.4983 131.442C82.4941 131.442 82.4906 131.442 82.4868 131.442Z" fill="#1C1D38"/>
<path d="M78.4776 21.4329C80.1177 21.6296 81.88 21.9729 82.9975 23.2079C83.4577 23.7167 83.7739 24.3459 83.9926 25.0001C84.6238 26.8885 84.4432 29.0413 83.5063 30.794C86.4219 31.7553 88.3074 35.1845 87.583 38.2093C87.0962 40.2416 85.6313 41.9033 83.9695 43.1398C81.1198 45.2605 77.623 46.3469 74.1132 46.7551C70.6034 47.1634 67.0535 46.928 63.534 46.6167C60.7951 46.3746 57.9157 46.0325 55.6964 44.3853C53.4655 42.7292 52.242 39.9472 51.91 37.1613C51.4059 32.9292 52.9263 28.5521 55.7522 25.4307C57.3635 23.651 58.8947 22.7582 61.1814 22.2592C63.824 21.6828 66.5109 21.3148 69.2093 21.1552C72.299 20.9726 75.4041 21.0641 78.4776 21.4329Z" fill="#4B3838"/>
<path d="M80.744 49.7318C80.4764 52.8752 80.0231 56.4182 79.2644 59.4094C78.552 62.2258 77.5665 64.551 76.2106 65.6026C74.5042 66.9244 69.757 67.55 65.7816 67.4054L65.7515 67.6842L65.2994 72.1035L64.8392 76.5479C64.8392 76.5479 62.5374 80.2739 56.0053 80.1863C49.4732 80.0987 46.3704 72.5904 46.3704 72.5904C46.3704 72.5904 46.7189 62.2121 47.1599 59.6984C43.2418 60.1348 39.1081 57.7755 38.2848 53.6854C37.7922 51.2558 38.5166 48.3764 40.6408 46.9572C40.801 46.8497 42.2378 46.1059 42.8971 45.7606C43.1012 45.657 43.2272 45.585 43.2272 45.585C42.9068 43.8741 42.7939 42.0925 42.9491 40.2697C43.8595 29.5825 53.1332 21.6706 63.6577 22.595C64.5458 22.6729 65.4095 22.8129 66.256 23.0088C66.5776 23.0819 66.8922 23.1605 67.2057 23.252C68.7122 23.6849 70.1405 24.2965 71.4615 25.0654C76.5055 27.978 80.0547 33.1325 80.9211 39.0817C81.0386 39.847 81.1045 40.6268 81.1256 41.4156L81.1449 41.4109C81.1437 41.4116 81.1337 45.1537 80.744 49.7318Z" fill="#FF8D9E"/>
<path opacity="0.25" d="M80.744 49.7318C80.4764 52.8752 80.0231 56.4182 79.2644 59.4094C78.552 62.2258 77.5665 64.551 76.2106 65.6026C74.5042 66.9244 69.757 67.55 65.7816 67.4054L65.7515 67.6842L65.2994 72.1035L64.8392 76.5479C64.8392 76.5479 62.5374 80.2739 56.0053 80.1863C49.4732 80.0987 46.3704 72.5904 46.3704 72.5904C46.3704 72.5904 46.7189 62.2121 47.1599 59.6984C43.2418 60.1348 39.1081 57.7755 38.2848 53.6854C37.7922 51.2558 38.5166 48.3764 40.6408 46.9572C40.801 46.8497 42.2378 46.1059 42.8971 45.7606C43.1012 45.657 43.2272 45.585 43.2272 45.585C42.9068 43.8741 42.7939 42.0925 42.9491 40.2697C43.8595 29.5825 53.1332 21.6706 63.6577 22.595C64.5458 22.6729 65.4095 22.8129 66.256 23.0088C66.5776 23.0819 66.8922 23.1605 67.2057 23.252C68.7122 23.6849 70.1405 24.2965 71.4615 25.0654C76.5055 27.978 80.0547 33.1325 80.9211 39.0817C81.0386 39.847 81.1045 40.6268 81.1256 41.4156L81.1449 41.4109C81.1437 41.4116 81.1337 45.1537 80.744 49.7318Z" fill="#DBD5B3"/>
<g opacity="0.15">
<path opacity="0.15" d="M66.0342 54.2294C65.7823 57.1843 63.2194 59.3726 60.3096 59.1169C57.3998 58.8611 55.2447 56.2586 55.4966 53.3038C55.7484 50.3489 58.3113 48.1606 61.2211 48.4163C64.131 48.6721 66.2856 51.2746 66.0342 54.2294Z" fill="#0D0303"/>
<path opacity="0.15" d="M80.7441 49.7319C80.4765 52.8752 80.0232 56.4182 79.2645 59.4094C79.1702 59.4075 79.0766 59.3992 78.9826 59.391C76.3062 59.156 74.324 56.7619 74.5555 54.0441C74.7869 51.3262 77.1441 49.3197 79.8206 49.5547C80.1391 49.5829 80.4491 49.6423 80.7441 49.7319Z" fill="#0D0303"/>
</g>
<path d="M67.4555 47.2364C67.3488 48.1816 66.5971 48.8703 65.7765 48.7749C64.9558 48.6794 64.377 47.8359 64.4833 46.8911C64.5896 45.9459 65.3417 45.2573 66.1623 45.3527C66.983 45.4481 67.5622 46.2916 67.4555 47.2364Z" fill="#1C1D38"/>
<path d="M78.533 47.7053C78.4268 48.6505 77.7463 49.3474 77.0134 49.2621C76.2806 49.1769 75.773 48.3416 75.8793 47.3968C75.986 46.4516 76.6665 45.7547 77.3989 45.8399C78.1318 45.9252 78.6397 46.7601 78.533 47.7053Z" fill="#1C1D38"/>
<path d="M71.6004 53.5391C71.0771 53.5391 70.6581 53.4139 70.6223 53.403C70.4975 53.3651 70.4278 53.2325 70.4651 53.1054C70.5025 52.9795 70.6342 52.9079 70.7578 52.9458C70.774 52.9494 72.2948 53.3983 72.9606 52.4742C73.4817 51.7512 73.045 48.0811 72.6471 45.9381C72.6233 45.8078 72.7072 45.6835 72.8351 45.6588C72.961 45.6268 73.085 45.7195 73.11 45.8489C73.219 46.4374 74.1525 51.6291 73.3407 52.7566C72.8863 53.3862 72.18 53.5391 71.6004 53.5391Z" fill="#1C1D38"/>
<path d="M47.3058 57.9358C47.3039 57.9358 47.3012 57.9358 47.2993 57.9358C47.1695 57.9322 47.067 57.8223 47.0709 57.6902C47.1468 54.9993 46.3423 52.3092 44.8065 50.1161C44.1033 49.1115 42.6222 47.4041 40.6065 47.252C40.4768 47.2418 40.3797 47.1269 40.3893 46.9955C40.399 46.8625 40.5207 46.7777 40.6416 46.7745C42.8498 46.9427 44.4395 48.767 45.19 49.8385C46.7851 52.1168 47.62 54.9094 47.5415 57.7035C47.5376 57.8329 47.4329 57.9358 47.3058 57.9358Z" fill="#1C1D38"/>
<path d="M71.1707 57.0262C70.4159 57.0262 69.6568 56.7118 69.1346 56.1588C68.8015 55.8065 68.5747 55.3873 68.3552 54.981C68.2928 54.8648 68.3344 54.7193 68.4484 54.6564C68.5604 54.5926 68.7048 54.6345 68.7684 54.7506C68.9729 55.1296 69.1843 55.5206 69.4743 55.8276C70.0123 56.3974 70.8522 56.6613 71.6128 56.5033C72.3741 56.3438 73.0423 55.7635 73.3153 55.0248C73.3604 54.9012 73.4967 54.8363 73.6184 54.8851C73.7401 54.9313 73.8017 55.0693 73.7559 55.1929C73.4281 56.0814 72.6237 56.7802 71.7083 56.9711C71.5307 57.0074 71.3505 57.0262 71.1707 57.0262Z" fill="#1C1D38"/>
<path d="M63.2912 40.615C63.0181 40.861 62.7755 41.1746 62.7331 41.5426C62.6885 41.9266 62.8756 42.3118 63.1548 42.575C63.434 42.8382 63.7953 42.9934 64.1607 43.1018C65.2714 43.4306 66.4933 43.356 67.5573 42.8945C68.0795 42.6681 68.6041 42.2962 68.7361 41.7354C68.8906 41.0796 68.4258 40.4042 67.8323 40.1012C66.506 39.4239 64.4003 39.6147 63.2912 40.615Z" fill="#1C1D38"/>
<path d="M80.2737 41.2848C80.5468 41.5308 80.7894 41.8444 80.8317 42.2124C80.8764 42.5964 80.6892 42.9816 80.41 43.2448C80.1308 43.508 79.7696 43.6632 79.4042 43.7716C78.2935 44.1004 77.0716 44.0258 76.0075 43.5643C75.4853 43.3379 74.9608 42.966 74.8287 42.4052C74.6743 41.7494 75.1391 41.074 75.7326 40.771C77.0589 40.0937 79.1646 40.2845 80.2737 41.2848Z" fill="#1C1D38"/>
<path d="M71.8149 24.7607C71.6228 26.4868 71.1283 28.9595 69.8806 31.1826C67.6805 35.1175 62.3587 35.0956 62.3587 35.0956C62.3587 35.0956 62.8185 39.3167 61.0586 43.2374C59.2991 47.1519 53.7921 49.2304 53.7921 49.2304L51.8211 52.9295C51.5673 53.4054 50.8861 53.3823 50.67 52.8876C50.0939 51.5694 49.0819 49.4897 47.8996 48.1034C46.0584 45.9299 42.6479 45.9713 42.6479 45.9713L42.5586 45.9569C42.7677 45.8509 42.8967 45.777 42.8967 45.777C42.5686 44.0246 42.6591 42.2058 42.6121 40.333C42.2058 24.162 48.8069 21.4148 63.8217 22.2305C64.7333 22.2802 65.6159 22.4538 66.4828 22.6544C66.8121 22.7291 67.134 22.8101 67.4552 22.9035C68.9994 23.347 70.4625 23.9735 71.8149 24.7607Z" fill="#4B3838"/>
<path d="M65.7504 67.6848L65.2983 72.1041C64.4214 72.1933 62.4816 71.9723 59.8887 71.0784C54.9159 69.3644 54.6875 65.094 54.6875 65.094C58.0614 67.2014 63.8672 67.6026 65.7504 67.6848Z" fill="#1C1D38"/>
<path d="M164.489 137.024H0V159H164.489V137.024Z" fill="#695F67"/>
<path d="M46.3171 145.153L36.1445 139.658H114.711L124.45 145.812C124.45 145.812 46.3171 144.713 46.3171 145.153Z" fill="#1C1D38"/>
<path d="M6.58611 141.856C6.58611 141.856 3.63159 128.668 12.1405 123.937C20.6489 119.207 46.0562 124.368 53.8557 125.658C61.6552 126.948 85.6445 130.388 85.6445 130.388C85.6445 130.388 95.0984 123.938 97.58 123.364C100.062 122.791 109.279 119.781 109.634 121.071C109.988 122.361 101.716 127.378 101.716 127.378C101.716 127.378 105.38 127.091 106.797 127.808C108.215 128.525 113.533 130.962 113.179 132.252C112.824 133.542 106.206 131.392 104.788 131.679C103.37 131.965 100.179 132.682 100.179 132.682C100.179 132.682 111.879 134.545 111.76 136.122C111.642 137.699 101.007 135.835 99.943 136.122C98.8793 136.409 106.206 138.129 106.206 139.419C106.206 140.709 97.5796 138.702 96.7524 139.133C95.9252 139.563 91.9074 142.143 85.1716 141.139C78.4357 140.136 6.58611 141.856 6.58611 141.856Z" fill="#FF8D9E"/>
<path opacity="0.25" d="M6.58611 141.856C6.58611 141.856 3.63159 128.668 12.1405 123.937C20.6489 119.207 46.0562 124.368 53.8557 125.658C61.6552 126.948 85.6445 130.388 85.6445 130.388C85.6445 130.388 95.0984 123.938 97.58 123.364C100.062 122.791 109.279 119.781 109.634 121.071C109.988 122.361 101.716 127.378 101.716 127.378C101.716 127.378 105.38 127.091 106.797 127.808C108.215 128.525 113.533 130.962 113.179 132.252C112.824 133.542 106.206 131.392 104.788 131.679C103.37 131.965 100.179 132.682 100.179 132.682C100.179 132.682 111.879 134.545 111.76 136.122C111.642 137.699 101.007 135.835 99.943 136.122C98.8793 136.409 106.206 138.129 106.206 139.419C106.206 140.709 97.5796 138.702 96.7524 139.133C95.9252 139.563 91.9074 142.143 85.1716 141.139C78.4357 140.136 6.58611 141.856 6.58611 141.856Z" fill="#DBD5B3"/>
<path d="M73.2235 137.853L93.1206 57.8932C93.2161 57.5096 93.5569 57.2413 93.9463 57.2433L187 57.6797L172.499 138.34C172.499 138.34 85.0781 138.533 74.0722 138.919C73.51 138.938 73.0856 138.407 73.2235 137.853Z" fill="#1C1D38"/>
<path d="M133.035 97.6068L119.76 152.406H130.293L142.558 97.6068C142.558 97.6068 132.818 97.3866 133.035 97.6068Z" fill="#1C1D38"/>
<path d="M119.761 152.406L114.071 151.027C113.094 150.79 113.263 149.329 114.268 149.329H124.667L130.294 152.406H119.761Z" fill="#1C1D38"/>
<path d="M130.293 152.621C130.277 152.621 130.26 152.619 130.243 152.615C130.129 152.587 130.06 152.47 130.087 152.355L141.421 104.744C141.742 103.394 141.476 101.969 140.69 100.835C139.904 99.6997 138.674 98.9626 137.316 98.8128C134.941 98.5488 132.74 100.127 132.182 102.48L120.164 152.347C120.136 152.463 120.024 152.537 119.907 152.505C119.794 152.477 119.724 152.36 119.752 152.245L131.771 102.378C132.378 99.8166 134.781 98.0866 137.362 98.385C138.841 98.548 140.181 99.3509 141.037 100.587C141.893 101.823 142.183 103.375 141.833 104.844L130.499 152.456C130.476 152.554 130.388 152.621 130.293 152.621Z" fill="#FFE8D1"/>
<path d="M77.4832 138.848C77.4667 138.848 77.4501 138.846 77.4332 138.842C77.3192 138.813 77.2499 138.697 77.2776 138.581L96.7561 57.2622C96.7839 57.1472 96.8975 57.0772 97.0122 57.1042C97.1262 57.1327 97.1956 57.2489 97.1678 57.3646L77.6893 138.684C77.6658 138.782 77.5787 138.848 77.4832 138.848Z" fill="#FFE8D1"/>
<path d="M115.144 127.273H92.9227C92.8057 127.273 92.7109 127.176 92.7109 127.058C92.7109 126.939 92.8057 126.843 92.9227 126.843H115.144C115.261 126.843 115.355 126.939 115.355 127.058C115.355 127.176 115.261 127.273 115.144 127.273Z" fill="#FFE8D1"/>
<path d="M113.413 130.349H91.1923C91.0752 130.349 90.9805 130.253 90.9805 130.134C90.9805 130.016 91.0752 129.919 91.1923 129.919H113.413C113.53 129.919 113.625 130.016 113.625 130.134C113.625 130.253 113.531 130.349 113.413 130.349Z" fill="#FFE8D1"/>
<path d="M111.573 133.426H89.3524C89.2354 133.426 89.1406 133.33 89.1406 133.211C89.1406 133.093 89.2354 132.996 89.3524 132.996H111.573C111.69 132.996 111.785 133.093 111.785 133.211C111.785 133.33 111.69 133.426 111.573 133.426Z" fill="#FFE8D1"/>
<path opacity="0.2" d="M33.5488 75.9214L53.6774 158.999H149.673L41.3406 71.9655L33.5488 75.9214Z" fill="white"/>
<path d="M8.07341 150.668L7.22656 150.627L10.1222 86.668L32.8163 71.8958L33.2738 72.6204L10.9494 87.1525L8.07341 150.668Z" fill="#1C1D38"/>
<path d="M1.7336 153.871L7.79359 148.449L13.854 153.724C13.854 153.724 1.30074 153.871 1.7336 153.871Z" fill="#1C1D38"/>
<path d="M12.1226 86.9657C12.1226 87.9065 11.3716 88.6691 10.4451 88.6691C9.51853 88.6691 8.76758 87.9065 8.76758 86.9657C8.76758 86.0248 9.51853 85.2622 10.4451 85.2622C11.3716 85.2622 12.1226 86.0248 12.1226 86.9657Z" fill="#1C1D38"/>
<path d="M30.1884 76.8967L32.6835 92.8444L50.4314 71.0859L36.5269 69.9448C32.6955 69.6308 29.5854 73.042 30.1884 76.8967Z" fill="#1C1D38"/>
</svg>
