<svg width="14" height="12" viewBox="0 0 14 12" fill="none" xmlns="http://www.w3.org/2000/svg">
<path d="M7.35627 6.66213L7.35625 6.66213C7.12316 6.73002 6.87687 6.73003 6.64372 6.66213L6.64371 6.66213L2.57542 5.4776C2.121 5.3453 1.80295 4.92146 1.80295 4.44816V3.87245C1.80295 3.71182 1.93385 3.58092 2.09448 3.58092H11.9055C12.0661 3.58092 12.1971 3.71182 12.1971 3.87245V4.44816C12.1971 4.92146 11.879 5.34532 11.4246 5.47762L7.35627 6.66213ZM2.27406 6.51259L2.27407 6.51259C3.19059 6.77944 3.91098 6.99049 4.48059 7.15736C5.30636 7.39927 5.81522 7.54835 6.14532 7.64001C6.42343 7.71723 6.58192 7.75581 6.69907 7.77436C6.80751 7.79154 6.88036 7.79134 6.96753 7.79109C6.97811 7.79106 6.9889 7.79103 6.99999 7.79103C7.01163 7.79103 7.02293 7.79106 7.03401 7.7911C7.12152 7.79136 7.19458 7.79158 7.30238 7.7746C7.41949 7.75615 7.5774 7.71769 7.85482 7.64057C8.17715 7.55096 8.6708 7.40626 9.46611 7.17313C10.0437 7.00384 10.7803 6.78791 11.7259 6.51259L11.684 6.36857L11.7259 6.51259C11.8922 6.46416 12.05 6.39691 12.197 6.31244V10.1097C12.197 10.2703 12.0661 10.4013 11.9055 10.4013H2.09448C1.93387 10.4013 1.80295 10.2704 1.80295 10.1098V6.31243C1.95 6.3969 2.10774 6.46415 2.27406 6.51259ZM11.9055 2.50297H9.41593V1.58934C9.41593 1.00005 8.93675 0.520898 8.34747 0.520898H5.65251C5.06322 0.520898 4.58404 1.00005 4.58404 1.58934V2.50297H2.09448C1.3392 2.50297 0.725 3.11719 0.725 3.87245V10.1097C0.725 10.865 1.3392 11.4792 2.09448 11.4792H11.9055C12.6608 11.4792 13.275 10.865 13.275 10.1097V3.87245C13.275 3.11719 12.6608 2.50297 11.9055 2.50297ZM5.66199 1.59885H8.33799V2.50297H5.66199V1.59885Z" fill="#6F727C" stroke="#6F727C" stroke-width="0.3"/>
</svg>
