<svg width="40" height="40" viewBox="0 0 40 40" fill="none" xmlns="http://www.w3.org/2000/svg">
<rect width="40" height="40" rx="10" fill="#858585"/>
<path d="M21.6484 14.3438H15.0859C14.3093 14.3438 13.6797 14.9733 13.6797 15.75V25.125C13.6797 25.9017 14.3093 26.5312 15.0859 26.5312H21.6484C22.4251 26.5312 23.0547 25.9017 23.0547 25.125V15.75C23.0547 14.9733 22.4251 14.3438 21.6484 14.3438Z" fill="white"/>
<path d="M25.8668 13.875V23.25C25.8657 23.6226 25.7172 23.9797 25.4537 24.2431C25.1902 24.5066 24.8332 24.6551 24.4605 24.6562H23.9918V15.75C23.9918 15.1284 23.7449 14.5323 23.3053 14.0927C22.8658 13.6532 22.2696 13.4062 21.648 13.4062H16.5762C16.6729 13.1327 16.8518 12.8958 17.0885 12.7279C17.3251 12.5601 17.6079 12.4696 17.898 12.4688H24.4605C24.8332 12.4699 25.1902 12.6184 25.4537 12.8819C25.7172 13.1453 25.8657 13.5024 25.8668 13.875Z" fill="white"/>
</svg>
