<svg width="20" height="20" viewBox="0 0 20 20" fill="none" xmlns="http://www.w3.org/2000/svg">
<path d="M15.9073 14.4931C15.5167 14.1025 14.8836 14.1025 14.493 14.4931C14.1025 14.8836 14.1025 15.5167 14.493 15.9073L15.9073 14.4931ZM17.693 19.1072C18.0835 19.4978 18.7166 19.4978 19.1072 19.1072C19.4977 18.7167 19.4977 18.0836 19.1072 17.693L17.693 19.1072ZM14.493 15.9073L17.693 19.1072L19.1072 17.693L15.9073 14.4931L14.493 15.9073ZM8.8001 15.0001C5.37593 15.0001 2.6001 12.2243 2.6001 8.8001H0.600098C0.600098 13.3288 4.27136 17.0001 8.8001 17.0001V15.0001ZM15.0001 8.8001C15.0001 12.2243 12.2243 15.0001 8.8001 15.0001V17.0001C13.3288 17.0001 17.0001 13.3288 17.0001 8.8001H15.0001ZM8.8001 2.6001C12.2243 2.6001 15.0001 5.37593 15.0001 8.8001H17.0001C17.0001 4.27136 13.3288 0.600098 8.8001 0.600098V2.6001ZM8.8001 0.600098C4.27136 0.600098 0.600098 4.27136 0.600098 8.8001H2.6001C2.6001 5.37593 5.37593 2.6001 8.8001 2.6001V0.600098Z" fill="#32374A"/>
</svg>
