<svg width="20" height="20" viewBox="0 0 20 20" fill="none" xmlns="http://www.w3.org/2000/svg">
<path d="M15.9068 14.4929C15.5163 14.1024 14.8831 14.1024 14.4926 14.4929C14.102 14.8835 14.102 15.5166 14.4925 15.9072L15.9068 14.4929ZM17.6925 19.1071C18.083 19.4976 18.7162 19.4976 19.1067 19.1071C19.4972 18.7166 19.4972 18.0834 19.1067 17.6929L17.6925 19.1071ZM14.4925 15.9072L17.6925 19.1071L19.1067 17.6929L15.9068 14.4929L14.4925 15.9072ZM8.79961 15C5.37544 15 2.59961 12.2241 2.59961 8.79998H0.599609C0.599609 13.3287 4.27087 17 8.79961 17V15ZM14.9996 8.79998C14.9996 12.2241 12.2238 15 8.79961 15V17C13.3283 17 16.9996 13.3287 16.9996 8.79998H14.9996ZM8.79961 2.59998C12.2238 2.59998 14.9996 5.37581 14.9996 8.79998H16.9996C16.9996 4.27124 13.3283 0.599976 8.79961 0.599976V2.59998ZM8.79961 0.599976C4.27087 0.599976 0.599609 4.27124 0.599609 8.79998H2.59961C2.59961 5.37581 5.37544 2.59998 8.79961 2.59998V0.599976Z" fill="#6F727C"/>
</svg>
