<svg width="19" height="20" viewBox="0 0 19 20" fill="none" xmlns="http://www.w3.org/2000/svg">
<path fill-rule="evenodd" clip-rule="evenodd" d="M9.77382 8.51776C8.39311 8.51776 7.27382 9.63704 7.27382 11.0178C7.27382 12.1621 8.04268 13.1269 9.092 13.4236V16.4723C9.092 16.8489 9.39727 17.1541 9.77382 17.1541C10.1504 17.1541 10.4556 16.8489 10.4556 16.4723V13.4236C11.505 13.1269 12.2738 12.1621 12.2738 11.0178C12.2738 9.63704 11.1545 8.51776 9.77382 8.51776ZM8.63746 11.0178C8.63746 10.3902 9.14623 9.88139 9.77382 9.88139C10.4014 9.88139 10.9102 10.3902 10.9102 11.0178C10.9102 11.6454 10.4014 12.1541 9.77382 12.1541C9.14623 12.1541 8.63746 11.6454 8.63746 11.0178Z" fill="#32374A"/>
<path fill-rule="evenodd" clip-rule="evenodd" d="M9.77382 0.335938C6.88688 0.335938 4.54655 2.67627 4.54655 5.56321V6.03849L4.52214 6.04632C2.93076 6.5634 1.6831 7.81106 1.16603 9.40244C0.909778 10.1911 0.909927 11.1376 0.910171 12.6888V12.9831C0.909927 14.5342 0.909778 15.4808 1.16603 16.2694C1.6831 17.8608 2.93076 19.1085 4.52214 19.6256C5.31079 19.8818 6.25734 19.8817 7.80849 19.8814H11.7392C13.2903 19.8817 14.2369 19.8818 15.0255 19.6256C16.6169 19.1085 17.8645 17.8608 18.3816 16.2694C18.6379 15.4808 18.6377 14.5342 18.6375 12.9831V12.6888C18.6377 11.1376 18.6379 10.1911 18.3816 9.40244C17.8645 7.81106 16.6169 6.5634 15.0255 6.04632L15.0011 6.03849V5.56321C15.0011 2.67627 12.6608 0.335938 9.77382 0.335938ZM7.8793 5.79048C7.08003 5.79045 6.4421 5.79043 5.91019 5.82054V5.56321C5.91019 3.42938 7.64 1.69957 9.77382 1.69957C11.9076 1.69957 13.6375 3.42938 13.6375 5.56321V5.82054C13.1055 5.79043 12.4676 5.79045 11.6683 5.79048H7.8793ZM5.34164 7.24802C5.88491 7.1565 6.61759 7.15412 7.95564 7.15412H11.592C12.9301 7.15412 13.6627 7.1565 14.206 7.24802C14.3562 7.27333 14.4858 7.30477 14.6041 7.34322C15.7804 7.7254 16.7025 8.64759 17.0847 9.82383C17.2654 10.3799 17.2738 11.0908 17.2738 12.8359C17.2738 14.5811 17.2654 15.2919 17.0847 15.848C16.7025 17.0243 15.7804 17.9465 14.6041 18.3287C14.048 18.5093 13.3371 18.5178 11.592 18.5178H7.95564C6.2105 18.5178 5.49963 18.5093 4.94353 18.3287C3.76729 17.9465 2.84511 17.0243 2.46292 15.848C2.28223 15.2919 2.27382 14.5811 2.27382 12.8359C2.27382 11.0908 2.28223 10.3799 2.46292 9.82383C2.84511 8.64759 3.76729 7.7254 4.94353 7.34322C5.06187 7.30477 5.19141 7.27333 5.34164 7.24802Z" fill="#32374A"/>
</svg>
