<svg width="40" height="40" viewBox="0 0 40 40" fill="none" xmlns="http://www.w3.org/2000/svg">
<rect width="40" height="40" rx="10" fill="#3B3C44"/>
<path d="M24.1875 21.7266C23.2614 21.7266 22.4385 22.1485 21.9257 22.798L17.511 20.6829C17.5851 20.447 17.625 20.1975 17.625 19.9395C17.625 19.5899 17.5519 19.2561 17.4196 18.9506L22.0464 16.3444C22.5627 16.9125 23.3309 17.2734 24.1875 17.2734C25.7383 17.2734 27 16.0906 27 14.6367C27 13.1828 25.7383 12 24.1875 12C22.6367 12 21.375 13.1828 21.375 14.6367C21.375 14.9728 21.4425 15.2942 21.5653 15.59L16.9269 18.2027C16.411 17.6514 15.6544 17.3027 14.8125 17.3027C13.2617 17.3027 12 18.4856 12 19.9395C12 21.3933 13.2617 22.5762 14.8125 22.5762C15.7538 22.5762 16.5885 22.1404 17.0993 21.4727L21.5012 23.5816C21.4192 23.8287 21.375 24.0912 21.375 24.3633C21.375 25.8172 22.6367 27 24.1875 27C25.7383 27 27 25.8172 27 24.3633C27 22.9094 25.7383 21.7266 24.1875 21.7266ZM24.1875 12.8789C25.2214 12.8789 26.0625 13.6675 26.0625 14.6367C26.0625 15.606 25.2214 16.3945 24.1875 16.3945C23.1536 16.3945 22.3125 15.606 22.3125 14.6367C22.3125 13.6675 23.1536 12.8789 24.1875 12.8789ZM14.8125 21.6973C13.7786 21.6973 12.9375 20.9087 12.9375 19.9395C12.9375 18.9702 13.7786 18.1816 14.8125 18.1816C15.8464 18.1816 16.6875 18.9702 16.6875 19.9395C16.6875 20.9087 15.8464 21.6973 14.8125 21.6973ZM24.1875 26.1211C23.1536 26.1211 22.3125 25.3325 22.3125 24.3633C22.3125 23.394 23.1536 22.6055 24.1875 22.6055C25.2214 22.6055 26.0625 23.394 26.0625 24.3633C26.0625 25.3325 25.2214 26.1211 24.1875 26.1211Z" fill="white"/>
<path d="M14.8125 21.6973C13.7786 21.6973 12.9375 20.9087 12.9375 19.9395C12.9375 18.9702 13.7786 18.1816 14.8125 18.1816C15.8464 18.1816 16.6875 18.9702 16.6875 19.9395C16.6875 20.9087 15.8464 21.6973 14.8125 21.6973Z" fill="white"/>
<path d="M24.1875 12.8789C25.2214 12.8789 26.0625 13.6675 26.0625 14.6367C26.0625 15.606 25.2214 16.3945 24.1875 16.3945C23.1536 16.3945 22.3125 15.606 22.3125 14.6367C22.3125 13.6675 23.1536 12.8789 24.1875 12.8789Z" fill="white"/>
<path d="M24.1875 26.1211C23.1536 26.1211 22.3125 25.3325 22.3125 24.3633C22.3125 23.394 23.1536 22.6055 24.1875 22.6055C25.2214 22.6055 26.0625 23.394 26.0625 24.3633C26.0625 25.3325 25.2214 26.1211 24.1875 26.1211Z" fill="white"/>
</svg>
