<svg width="187" height="160" viewBox="0 0 187 160" fill="none" xmlns="http://www.w3.org/2000/svg">
<path d="M68.9891 69.1765L15.6868 70.8399H15.5616L14.646 70.5802L14.3954 70.5129L13.4414 70.2436V26.342C13.4895 26.265 13.5283 26.188 13.5861 26.1114C13.5958 26.092 13.6055 26.0634 13.6245 26.044C14.2508 25.0152 14.8965 23.996 15.5616 22.9962C25.3143 22.6406 65.375 21.9771 65.375 21.9771L68.9891 69.1765Z" fill="#FFE8D1"/>
<path d="M65.151 59.6483V59.6387L65.1029 59.1867L64.4378 53.4946L64.38 53.033L63.7246 47.3409L63.6668 46.8793L63.0017 41.1872L62.9536 40.7256L62.2211 34.4566C62.192 34.351 62.1152 34.2643 61.9992 34.274C61.9992 34.274 51.1478 34.6009 40.2871 34.9469C39.304 34.9948 38.3597 35.0239 37.4537 35.0525H37.3766C37.3669 35.0525 37.3572 35.0525 37.3572 35.0525C34.9287 35.1295 32.8182 35.2065 30.968 35.2641H30.9583C30.8714 35.2641 30.7946 35.2641 30.7077 35.2835H30.698C30.6883 35.2738 30.6883 35.2835 30.6883 35.2835C28.0958 35.3605 26.0625 35.4375 24.4434 35.5048L24.0773 35.5145H24.0676C18.4009 35.7451 18.3625 35.8124 18.3241 35.9374C18.3144 35.9664 18.3047 35.9951 18.3047 36.0241L18.4683 41.9564L18.4877 42.4084V42.4181L18.6421 48.1198L18.6518 48.5814L18.8061 54.2929L18.8255 54.7545L18.9799 60.4562L18.9993 60.9178L19.1726 67.3985C19.1823 67.5235 19.2882 67.6098 19.3944 67.6098L24.9452 67.4562L25.3404 67.4465H25.3501L31.5276 67.2638H31.5373L31.9228 67.2542H31.9324L38.1002 67.0909H38.1099L38.5051 67.0812H38.5148L44.6826 66.9083L45.0875 66.8986L51.2649 66.7256L51.6601 66.716H51.6698L59.1868 66.5047H59.3412C59.3509 66.5047 59.3605 66.5047 59.3605 66.5047L65.7114 66.3221C65.7789 66.3221 65.827 66.3027 65.8657 66.2547C65.9041 66.2068 65.9235 66.1491 65.9138 66.0911L65.151 59.6483ZM59.475 66.071L59.022 66.0899L51.6787 66.2919H51.669L51.2161 66.3016L45.1061 66.4648L44.6434 66.4842L38.5241 66.6475L38.0711 66.6668H38.0615L31.9421 66.8301L31.4892 66.8398H31.4795L25.3602 67.0127L24.9072 67.0321L19.5876 67.176L19.4239 60.907L19.4045 60.4454L19.2409 54.7436L19.2312 54.282L19.0768 48.5706L19.0671 48.109L18.9035 42.4072V42.3975L18.8938 41.9456L18.7301 36.1862C19.2987 36.1382 21.2358 36.0419 24.0498 35.9362C24.1944 35.9362 24.3484 35.9266 24.5027 35.9173C26.2758 35.85 28.3382 35.773 30.622 35.7056C30.7764 35.6863 30.9303 35.6863 31.0847 35.6863C33.0024 35.619 35.0648 35.5423 37.204 35.475L37.657 35.4653H37.6667C39.6713 35.398 41.7143 35.3307 43.767 35.2634H43.7767L44.2296 35.2537H44.2393C46.0221 35.196 47.8049 35.1384 49.559 35.0804L50.0216 35.0707C52.1612 35.0034 54.2426 34.936 56.2181 34.8784L56.6808 34.859C58.5116 34.8014 60.2463 34.7437 61.8173 34.6957L62.5208 40.7338L62.5786 41.1954L63.2437 46.8875L63.3015 47.3491L63.9569 53.0412L64.0147 53.5028L64.6798 59.1949L64.7279 59.6468L65.4605 65.9061L59.475 66.071Z" fill="#1C1D38"/>
<path d="M25.1518 67.5702C25.0253 67.5737 24.9195 67.4738 24.916 67.3477L24.0372 35.6436C24.0337 35.5175 24.1338 35.4118 24.2602 35.4084C24.3866 35.4049 24.4925 35.5047 24.496 35.6308L25.3752 67.3349C25.3786 67.4611 25.2786 67.5667 25.1518 67.5702Z" fill="#1C1D38"/>
<path d="M31.7342 67.3887C31.6078 67.3922 31.5019 67.2923 31.4984 67.1662L30.6192 35.4621C30.6157 35.3359 30.7158 35.2303 30.8422 35.2268C30.9687 35.2234 31.0745 35.3232 31.078 35.4493L31.9572 67.1534C31.9607 67.2796 31.8606 67.3852 31.7342 67.3887Z" fill="#1C1D38"/>
<path d="M38.3084 67.2068C38.182 67.2103 38.0761 67.1104 38.0726 66.9843L37.1934 35.2802C37.19 35.1541 37.29 35.0484 37.4164 35.0449C37.5429 35.0415 37.6487 35.1413 37.6522 35.2674L38.5314 66.9715C38.5349 67.0981 38.4352 67.2033 38.3084 67.2068Z" fill="#1C1D38"/>
<path d="M44.8904 67.025C44.764 67.0285 44.6581 66.9287 44.6547 66.8025L43.7755 35.0984C43.772 34.9723 43.872 34.8667 43.9985 34.8632C44.1249 34.8597 44.2308 34.9595 44.2343 35.0857L45.1134 66.7898C45.1169 66.9159 45.0169 67.0215 44.8904 67.025Z" fill="#1C1D38"/>
<path d="M51.465 66.8439C51.3409 66.8474 51.2362 66.751 51.2292 66.6272L49.557 35.0171C49.55 34.891 49.6477 34.783 49.7742 34.7765C49.7761 34.7765 49.7784 34.7765 49.78 34.7765C49.9041 34.773 50.0088 34.8693 50.0154 34.9931L51.6876 66.6032C51.6942 66.7294 51.5969 66.8373 51.4705 66.8439C51.4689 66.8435 51.4666 66.8439 51.465 66.8439Z" fill="#1C1D38"/>
<path d="M59.2787 66.52C59.1589 66.5235 59.0549 66.4325 59.0441 66.3114L56.2158 34.7699C56.2045 34.6437 56.2976 34.5327 56.424 34.5214C56.5477 34.5114 56.6621 34.6031 56.673 34.7292L59.5013 66.2708C59.5126 66.3969 59.4195 66.508 59.2931 66.5192C59.2884 66.5196 59.2838 66.5196 59.2787 66.52Z" fill="#1C1D38"/>
<path d="M62.9994 41.1828L18.4831 42.4117L18.4707 41.9539L62.9525 40.7262L62.9994 41.1828Z" fill="#1C1D38"/>
<path d="M63.7255 47.3385L18.6573 48.5821L18.6445 48.1244L63.6704 46.882L63.7255 47.3385Z" fill="#1C1D38"/>
<path d="M64.4352 53.4935L18.8233 54.7525L18.8105 54.2948L64.3802 53.0373L64.4352 53.4935Z" fill="#1C1D38"/>
<path d="M65.1493 59.6406L18.9933 60.9144L18.9805 60.457L65.1023 59.184L65.1493 59.6406Z" fill="#1C1D38"/>
<path d="M41.8385 27.3029C41.8385 28.3492 40.9884 29.1973 39.9398 29.1973C38.8911 29.1973 38.041 28.3492 38.041 27.3029C38.041 26.2567 38.8911 25.4085 39.9398 25.4085C40.9884 25.4085 41.8385 26.2567 41.8385 27.3029Z" fill="#1C1D38"/>
<path d="M15.6948 70.8404V70.8694L15.5695 70.8404L14.6539 70.5808L14.4034 70.5134L13.4493 70.2441L12.7652 70.0135L12.5244 69.9272L11.5801 69.6003L13.2279 28.5349L13.3148 26.5735C13.3532 26.4965 13.4016 26.4199 13.4497 26.3429C13.4978 26.2659 13.5366 26.1889 13.5944 26.1123L13.6716 27.9104L15.6948 70.8404Z" fill="#C7B8C4"/>
<path d="M14.6607 70.5809V70.7442L14.4199 70.7539L14.4102 70.5136L13.4756 29.1788L13.4562 30.3036L12.7721 70.0137V70.1003L12.5312 70.0907V69.9274L13.2347 28.535L13.2731 26.6506C13.2828 26.6216 13.3022 26.593 13.3212 26.5736C13.3596 26.4966 13.4081 26.42 13.4562 26.343C13.5043 26.266 13.5431 26.189 13.6008 26.1124C13.6105 26.0931 13.6202 26.0645 13.6392 26.0451L13.6776 27.9105L14.6607 70.5809Z" fill="#1C1D38"/>
<path opacity="0.45" d="M186.996 123.608L182.125 134.675L186.996 157.73V160H0V123.608H186.996Z" fill="#323641"/>
<path d="M3.95312 150.779L24.7853 128.03L60.0527 128.194L42.0089 150.779C42.0089 150.779 3.95312 150.288 3.95312 150.779Z" fill="#FFE8D1"/>
<path d="M73.1754 64.2853C73.1754 64.2853 65.3016 67.6404 61.0368 74.1868C56.7721 80.7333 38.7283 103.318 38.7283 103.318C38.7283 103.318 26.0157 115.184 25.4414 117.966C25.109 119.577 26.5897 120.83 26.5897 120.83L25.2773 122.467C25.2773 122.467 33.1511 125.249 34.135 128.849L36.4316 128.031C36.4316 128.031 38.8919 129.013 40.6964 128.686C42.5009 128.358 55.7874 120.011 61.6926 113.465C67.5983 106.918 73.1754 64.2853 73.1754 64.2853Z" fill="#FFB05C"/>
<path d="M25.2782 122.466C25.2782 122.466 22.5716 122.957 18.2246 124.103C13.8776 125.248 9.69508 127.621 9.44882 128.93C9.20256 130.24 9.3666 131.222 9.3666 131.222C9.3666 131.222 7.39806 132.122 7.15219 133.104C6.90631 134.086 7.39806 136.623 7.39806 136.623C7.39806 136.623 5.67578 137.85 5.67578 138.996C5.67578 140.141 7.80798 143.742 11.1707 144.069C14.5334 144.396 15.1896 144.151 15.1896 142.678C15.1896 142.678 15.7636 142.842 16.4198 141.942C17.0759 141.042 16.5838 139.896 16.5838 139.896C16.5838 139.896 17.5681 141.205 18.7982 139.978C18.7982 139.978 20.4387 142.351 21.9969 141.123C23.5551 139.896 24.5394 135.723 25.9336 134.659C27.2782 133.633 33.7325 130.096 35.3683 127.57C35.4288 127.477 35.4827 127.385 35.5297 127.294C36.8424 124.757 28.3128 120.747 25.2782 122.466Z" fill="#FFBFC2"/>
<path d="M21.1942 141.556C20.8813 141.556 20.5567 141.485 20.2231 141.345C19.5569 141.064 18.8138 139.652 20.0537 130.662C20.0797 130.476 20.0987 130.335 20.1091 130.252C19.8489 130.171 18.9228 130.247 17.9851 130.435C17.8602 130.457 17.7283 130.376 17.702 130.246C17.676 130.116 17.7601 129.99 17.8912 129.963C18.6967 129.803 20.1041 129.582 20.4725 129.91C20.5633 129.991 20.6075 130.101 20.5978 130.219C20.5931 130.276 20.5687 130.454 20.5311 130.727C19.3285 139.45 20.0459 140.749 20.4105 140.902C20.9049 141.109 21.3684 141.127 21.7876 140.957C22.5396 140.649 22.9762 139.82 23.1698 139.354L23.2714 139.108C24.2234 136.798 25.212 134.61 25.9954 134.237C26.9234 133.796 34.4206 129.396 35.3072 127.204C35.3572 127.08 35.4972 127.02 35.6209 127.071C35.7442 127.12 35.8039 127.261 35.7539 127.384C34.7468 129.874 26.8369 134.37 26.2021 134.671C25.4784 135.015 24.1986 138.122 23.7166 139.291L23.6146 139.538C23.3924 140.073 22.8839 141.027 21.9706 141.402C21.7213 141.504 21.4622 141.556 21.1942 141.556Z" fill="#1C1D38"/>
<path d="M17.7206 140.668C16.6273 140.668 15.5015 139.612 14.4812 138.654C14.2489 138.436 14.0216 138.223 13.8025 138.031C12.3606 136.76 10.0946 133.699 9.51794 132.425C8.90908 131.08 8.68337 130.469 9.22204 128.854C9.90615 126.807 15.0497 124.782 15.2688 124.698C15.3922 124.65 15.5329 124.711 15.5806 124.834C15.6291 124.958 15.5678 125.097 15.4437 125.144C15.3925 125.165 10.2924 127.172 9.67928 129.006C9.17822 130.507 9.40625 131.01 9.95734 132.228C10.5088 133.447 12.7558 136.467 14.1213 137.67C14.3435 137.866 14.5743 138.082 14.8112 138.304C15.9929 139.413 17.332 140.667 18.3814 139.981C19.3234 139.363 18.7184 135.194 18.1154 132.71C18.0844 132.582 18.1639 132.451 18.2926 132.42C18.4272 132.388 18.5528 132.469 18.5839 132.598C18.7514 133.289 20.1782 139.378 18.6455 140.383C18.3426 140.582 18.0328 140.668 17.7206 140.668Z" fill="#1C1D38"/>
<path d="M18.7924 142.505L18.7889 142.502L12.0801 108.711L12.5552 108.57L12.7878 108.5L13.2234 108.371L13.7019 108.229L13.9315 108.164L14.5396 107.982L21.2488 141.777H21.2453L20.6504 141.953L20.401 142.029L19.9321 142.165L19.5071 142.293L19.2577 142.365L18.7924 142.505Z" fill="#BACDE5"/>
<path d="M20.5623 142.126C20.4925 142.144 20.4266 142.101 20.4103 142.029V142.025L13.71 108.277L13.7092 108.255C13.7089 108.248 13.7085 108.237 13.7116 108.229L13.9412 108.164C13.952 108.177 13.9559 108.191 13.9598 108.206L20.66 141.954C20.6759 142.025 20.6321 142.103 20.5623 142.126Z" fill="#1C1D38"/>
<path d="M19.4099 142.463C19.3436 142.485 19.2746 142.441 19.2614 142.366L12.5612 108.618C12.5608 108.61 12.5573 108.603 12.5569 108.596C12.5565 108.589 12.5561 108.578 12.5592 108.57L12.7919 108.5C12.7989 108.51 12.8063 108.524 12.8105 108.542L19.5108 142.29V142.293C19.524 142.366 19.4798 142.444 19.4099 142.463Z" fill="#1C1D38"/>
<path d="M20.9399 146.186L19.9622 144.504L18.7949 142.503L21.2513 141.777L21.0807 144.185L20.9399 146.186Z" fill="#FF8D9E"/>
<path d="M20.9421 146.187L19.9648 144.505C20.3174 144.315 20.7063 144.2 21.0833 144.185L20.9421 146.187Z" fill="#1C1D38"/>
<path d="M14.5474 107.982C14.5474 107.982 14.3694 109.295 13.626 109.495C12.8825 109.695 12.0879 108.711 12.0879 108.711L14.5474 107.982Z" fill="#FF8D9E"/>
<path d="M15.1617 142.918C13.396 142.919 8.68871 139.3 7.85763 138.155C6.98001 136.945 6.9133 135.525 6.83574 133.882L6.82876 133.729C6.73879 131.853 9.02378 131.029 9.12112 130.994C9.24678 130.954 9.38367 131.017 9.42827 131.142C9.47248 131.267 9.40655 131.404 9.2809 131.448C9.26074 131.455 7.23674 132.188 7.30926 133.706L7.31663 133.859C7.39342 135.49 7.45469 136.779 8.24777 137.873C9.05209 138.981 13.6923 142.437 15.1578 142.437C15.166 142.437 15.1737 142.437 15.1815 142.437C16.4942 142.403 16.5869 140.397 16.5877 140.377C16.5935 140.245 16.7137 140.142 16.8374 140.146C16.9701 140.152 17.074 140.262 17.0694 140.395C17.0379 141.252 16.6059 142.881 15.1943 142.918C15.1838 142.918 15.173 142.918 15.1617 142.918Z" fill="#1C1D38"/>
<path d="M12.8099 144.524C12.4787 144.524 12.1057 144.507 11.6849 144.472C9.00743 144.249 6.79767 142.694 5.62337 140.203C4.76902 138.39 6.33578 136.93 7.28399 136.412C7.40111 136.346 7.54654 136.39 7.61053 136.507C7.6749 136.622 7.63224 136.769 7.5159 136.832C7.4205 136.885 5.18437 138.142 6.05889 139.997C6.70498 141.368 8.30045 143.708 11.7248 143.993C14.7118 144.244 14.8343 143.529 14.9538 142.841C14.9763 142.71 15.0977 142.616 15.2322 142.645C15.3629 142.668 15.451 142.792 15.4281 142.923C15.2516 143.938 14.7463 144.524 12.8099 144.524Z" fill="#1C1D38"/>
<path d="M114.186 54.9974C114.186 54.9974 133.542 57.6568 145.68 68.6219C157.819 79.5871 158.147 98.2444 159.131 108.719C160.115 119.193 162.412 128.521 159.459 133.758C156.506 138.995 90.7287 144.232 90.7287 144.232V124.593L63.4991 124.102C63.4991 124.102 58.4878 77.7306 66.1238 69.4403C73.0952 61.8712 87.9814 59.4162 87.9814 59.4162L96.224 61.9118L114.186 54.9974Z" fill="#FFB05C"/>
<path d="M136.083 121.411C135.944 121.411 135.831 121.3 135.828 121.161L135.09 82.1284C135.088 81.988 135.2 81.8723 135.34 81.8692C135.473 81.8444 135.598 81.9787 135.6 82.1191L136.338 121.152C136.341 121.292 136.228 121.408 136.088 121.411C136.086 121.411 136.084 121.411 136.083 121.411Z" fill="#1C1D38"/>
<path d="M63.4982 124.357C63.3733 124.357 63.2643 124.265 63.2465 124.139C61.4598 111.662 61.9268 84.7631 61.9314 84.4926C61.9341 84.3537 62.0478 84.2427 62.1866 84.2427C62.1881 84.2427 62.1893 84.2427 62.1912 84.2427C62.332 84.2454 62.4441 84.3615 62.4418 84.5019C62.4367 84.772 61.9702 111.63 63.7514 124.068C63.7712 124.207 63.6746 124.335 63.5354 124.355C63.5226 124.356 63.5102 124.357 63.4982 124.357Z" fill="#1C1D38"/>
<path d="M107.052 45.801C109.972 45.5708 112.885 44.7257 115.292 43.0608C117.699 41.3958 119.563 38.8642 120.114 35.9939C120.665 33.1237 119.786 29.9459 117.616 27.9834C118.975 25.974 119.875 23.5759 119.714 21.1572C119.553 18.7385 118.196 16.3314 115.998 15.2987C112.511 19.7553 108.32 24.0514 106.312 29.338C104.303 34.6242 105.427 40.3848 107.052 45.801Z" fill="#22212F"/>
<path d="M102.159 1.04889C93.8691 -0.693441 85.1615 -0.214813 77.0171 2.11101C74.4292 2.85004 71.806 3.82626 69.8929 5.71524C67.9799 7.60423 66.956 10.6176 68.0788 13.058C65.8911 14.1576 63.5886 16.531 63.3847 18.9664C63.1807 21.4017 64.5997 23.9604 66.8812 24.8488C65.8477 26.2518 66.4445 28.7084 67.6793 29.9385C68.9141 31.1685 70.7105 31.6634 72.4486 31.8217C77.2277 32.2573 81.9365 30.5196 86.2404 28.402C91.9025 25.6165 97.4079 21.9175 100.544 16.4513C103.288 11.6677 104.165 6.54482 102.542 1.27641C102.313 1.36695 102.387 0.958354 102.159 1.04889Z" fill="#22212F"/>
<path d="M73.3242 31.5831C73.6143 34.927 74.1045 38.696 74.9263 41.8781C75.6976 44.8741 76.7649 47.3477 78.2328 48.4667C80.0803 49.8728 85.2526 50.8351 89.5573 50.6815L90.0467 55.3831L90.5451 60.1109C90.5451 60.1109 93.0375 64.0746 100.11 63.9814C107.182 63.8885 110.542 55.9012 110.542 55.9012C110.542 55.9012 110.165 44.8609 109.687 42.1865C113.929 42.6504 118.405 40.1412 119.296 35.7902C119.83 33.2055 119.045 30.1426 116.745 28.6328C116.572 28.5183 115.016 27.727 114.302 27.3598C114.081 27.2495 113.945 27.1729 113.945 27.1729C114.292 25.3532 114.414 23.4573 114.246 21.5187C113.26 10.1496 103.22 1.73281 91.8245 2.71638C90.8631 2.79918 89.9277 2.94815 89.0113 3.15631C88.663 3.23409 88.3225 3.31766 87.9832 3.41517C86.352 3.876 84.8054 4.52643 83.3756 5.344C77.9144 8.44252 74.0715 13.9261 73.133 20.2547C73.0058 21.0688 72.9344 21.8983 72.9116 22.7372L72.8906 22.7322C72.8914 22.7322 72.9023 26.7125 73.3242 31.5831Z" fill="#FFBFC2"/>
<path d="M73.8282 22.7893C73.2402 23.1445 72.7539 23.7296 72.5623 24.4543C72.3991 25.0726 72.4825 25.7845 72.8447 26.2875C73.4675 27.1523 74.5193 27.1036 75.4155 27.0273C76.5766 26.9287 78.3427 26.6563 79.1342 25.586C79.6675 24.8652 79.6368 23.7172 79.092 23.0072C78.3478 22.0375 77.1354 21.9207 76.0705 22.0874C75.3387 22.202 74.5103 22.3772 73.8282 22.7893Z" fill="#1C1D38"/>
<path d="M90.3195 21.4133C90.9714 21.6303 91.5752 22.0939 91.9223 22.7586C92.2186 23.3258 92.2942 24.0386 92.0522 24.6089C91.6361 25.5894 90.5995 25.7736 89.7083 25.8966C88.5538 26.056 86.7714 26.1791 85.7623 25.3092C85.0828 24.7238 84.8587 23.5971 85.2329 22.7845C85.7444 21.6752 86.9009 21.2941 87.9767 21.2225C88.7163 21.173 89.5632 21.1614 90.3195 21.4133Z" fill="#1C1D38"/>
<g opacity="0.15">
<path opacity="0.15" d="M89.2521 36.3674C89.5244 39.5112 92.2996 41.839 95.4502 41.567C98.6008 41.2953 100.934 38.5265 100.661 35.3831C100.389 32.2397 97.6138 29.9119 94.4632 30.1835C91.313 30.4555 88.9795 33.224 89.2521 36.3674Z" fill="#1C1D38"/>
<path opacity="0.15" d="M73.3242 31.5831C73.6143 34.9269 74.1045 38.696 74.9263 41.8781C75.0283 41.8761 75.1299 41.8672 75.2315 41.8587C78.1292 41.6088 80.2758 39.062 80.0249 36.1705C79.7739 33.2794 77.2221 31.1447 74.3244 31.3946C73.9792 31.4244 73.6434 31.4875 73.3242 31.5831Z" fill="#1C1D38"/>
</g>
<path d="M87.7149 28.9285C87.8301 29.9337 88.6441 30.6665 89.533 30.5648C90.4214 30.4634 91.0482 29.5661 90.933 28.5609C90.8178 27.5556 90.0038 26.8228 89.1153 26.9242C88.2264 27.0259 87.5993 27.9232 87.7149 28.9285Z" fill="#1C1D38"/>
<path d="M75.7204 29.4273C75.8356 30.4326 76.5724 31.1743 77.3659 31.0838C78.1594 30.9932 78.7089 30.1048 78.5937 29.0992C78.4785 28.094 77.7417 27.3526 76.9482 27.4432C76.1548 27.5337 75.6049 28.4221 75.7204 29.4273Z" fill="#1C1D38"/>
<path d="M109.529 40.3107C109.392 40.3107 109.279 40.2012 109.275 40.0634C109.19 37.0914 110.094 34.1202 111.821 31.6973C112.634 30.5566 114.355 28.6162 116.746 28.4378C116.878 28.4231 117.008 28.5322 117.019 28.6727C117.029 28.8127 116.924 28.9346 116.784 28.9451C114.6 29.108 112.997 30.9246 112.236 31.9925C110.573 34.3257 109.702 37.1874 109.784 40.0499C109.788 40.1903 109.677 40.3072 109.536 40.3111C109.534 40.3107 109.532 40.3107 109.529 40.3107Z" fill="#1C1D38"/>
<path d="M83.6928 39.3426C83.4981 39.3426 83.3031 39.3233 83.1123 39.2838C82.1202 39.0807 81.2504 38.3378 80.8951 37.3921C80.8459 37.2606 80.9126 37.1143 81.0444 37.0648C81.1763 37.0141 81.3229 37.0818 81.3725 37.2138C81.6676 37.9996 82.3913 38.6168 83.215 38.7862C84.0376 38.9542 84.9478 38.6721 85.5307 38.0673C85.8444 37.7408 86.0736 37.3244 86.2946 36.9216C86.3629 36.799 86.5176 36.7549 86.641 36.821C86.7643 36.8887 86.8093 37.0431 86.7418 37.1666C86.5045 37.5976 86.259 38.0437 85.8987 38.419C85.3321 39.008 84.5099 39.3426 83.6928 39.3426Z" fill="#1C1D38"/>
<path d="M83.5019 35.3627C83.4872 35.3627 83.4732 35.3611 83.4585 35.3588C82.2648 35.1549 81.291 34.0935 81.1929 32.8894C81.1227 32.0227 81.4647 31.2086 81.7668 30.4909C81.8219 30.3612 81.9716 30.3009 82.1 30.3547C82.2299 30.4088 82.2911 30.5578 82.2365 30.687C81.9572 31.3518 81.6404 32.1055 81.7009 32.848C81.7796 33.8119 82.589 34.6944 83.5442 34.8573C83.683 34.8813 83.7761 35.0121 83.7528 35.1506C83.7315 35.2748 83.6237 35.3627 83.5019 35.3627Z" fill="#1C1D38"/>
<path d="M89.5469 50.6812L90.0363 55.3828C90.9857 55.478 93.0861 55.2423 95.8934 54.2917C101.278 52.4685 101.525 47.9255 101.525 47.9255C97.8721 50.167 91.5856 50.5942 89.5469 50.6812Z" fill="#1C1D38"/>
<path d="M114.037 27.1038C111.376 27.3503 108.36 29.0799 107.377 31.5585C105.274 31.9482 103 31.2641 101.463 29.7794C99.9267 28.2948 99.1685 26.0491 99.4916 23.9399C96.8823 24.5807 93.9734 24.3725 91.724 22.9057C89.4747 21.4384 88.0743 18.5748 88.7592 15.982C86.3443 15.7916 84.0275 14.5763 82.5015 12.6989C80.9754 10.8219 80.0063 7.02807 80.3181 4.63105C86.8934 2.49985 93.6375 1.33675 100.548 1.14715C102.086 1.10498 103.662 1.11775 105.111 1.63584C106.559 2.15433 107.877 3.27177 108.24 4.76377C110.918 4.19305 113.883 5.31204 115.512 7.50863C117.141 9.70522 117.346 12.861 116.015 15.2491C117.232 16.0899 118.344 17.1973 118.789 18.6065C119.322 20.2958 118.802 22.179 117.813 23.6489C116.823 25.1193 115.454 26.0371 114.037 27.1038Z" fill="#22212F"/>
<path d="M90.1107 55.7338L96.344 61.2576L110.123 48.2464L114.183 54.9975L101.634 73.4091L96.0978 62.6076L92.5303 73.1638L87.9785 59.4162L90.1107 55.7338Z" fill="#FFE8D1"/>
<path d="M61.7773 98.0807L71.1275 150.861H147.403L157.491 96.3624C157.491 96.3624 62.0232 98.0807 61.7773 98.0807Z" fill="#1C1D38"/>
<path d="M109.099 133.104C111.454 133.104 113.364 129.55 113.364 125.166C113.364 120.783 111.454 117.229 109.099 117.229C106.743 117.229 104.834 120.783 104.834 125.166C104.834 129.55 106.743 133.104 109.099 133.104Z" fill="#FFE8D1"/>
<path d="M176.682 99.0597V157.73H163.152V99.0597H164.666L169.378 99.921L175.112 99.0597H176.682Z" fill="#1C1D38"/>
<path d="M175.111 99.0597C174.566 100.116 173.475 100.781 172.285 100.781H167.498C166.38 100.781 165.344 100.195 164.77 99.2369L164.664 99.0597H175.111Z" fill="#FFE8D1"/>
<path d="M170.286 152.825C172.121 152.825 173.608 151.341 173.608 149.511C173.608 147.681 172.121 146.197 170.286 146.197C168.452 146.197 166.965 147.681 166.965 149.511C166.965 151.341 168.452 152.825 170.286 152.825Z" fill="#FFE8D1"/>
<path d="M187.001 100.724V147.564L184.225 149.254L187.001 151.558V157.731H177.258V99.0604H178.771L187.001 100.724Z" fill="#1C1D38"/>
<path d="M186.999 99.0604V100.724C186.807 100.762 186.594 100.781 186.392 100.781H181.603C180.484 100.781 179.454 100.195 178.875 99.2333L178.77 99.0604H186.999Z" fill="#FFE8D1"/>
<path d="M186.999 147.472V151.558C186.392 152.327 185.457 152.827 184.397 152.827C182.556 152.827 181.072 151.337 181.072 149.51C181.072 147.683 182.556 146.193 184.397 146.193C185.457 146.193 186.401 146.693 186.999 147.472Z" fill="#FFE8D1"/>
<path d="M176.921 3.32208H127.957V52.1744H176.921V3.32208Z" fill="#92847B"/>
<path d="M171.259 8.96814V10.3622L135.005 46.5241H133.617V8.96814H171.259Z" fill="#C7B8C4"/>
<path d="M171.262 10.3622H135.008V46.5241H171.262V10.3622Z" fill="#FFE8D1"/>
<path d="M150.471 38.0008C149.521 36.1675 147.341 35.4246 145.619 34.2812C142.885 32.4665 141.144 29.3982 140.472 26.1913C139.8 22.9845 140.114 19.641 140.84 16.4462C143.548 17.4665 146.318 18.5886 148.252 20.738C150.278 22.9887 151.265 26.0222 151.523 29.0364C151.781 32.0506 150.951 35.0137 150.471 38.0008Z" fill="#7EB291"/>
<path d="M154.248 36.46C154.12 32.7973 155.226 29.1022 157.345 26.1089C159.465 23.1152 162.585 20.8409 166.088 19.7366C166.968 22.993 167.752 26.7508 166.081 29.6822C164.887 31.7762 162.642 33.0337 160.426 33.9906C158.21 34.9475 156.091 34.9026 154.248 36.46Z" fill="#7EB291"/>
</svg>
