<svg width="20" height="19" viewBox="0 0 20 19" fill="none" xmlns="http://www.w3.org/2000/svg">
<path fill-rule="evenodd" clip-rule="evenodd" d="M13.47 2.5643C12.3777 -0.797473 7.62172 -0.797473 6.52942 2.5643C6.20827 3.5527 5.2872 4.22189 4.24793 4.22189C0.713161 4.22189 -0.756527 8.74512 2.10317 10.8228C2.94395 11.4337 3.29577 12.5165 2.97462 13.5049C1.88231 16.8666 5.73 19.6621 8.58969 17.5845C9.43047 16.9736 10.569 16.9736 11.4098 17.5845C14.2695 19.6621 18.1171 16.8666 17.0248 13.5049C16.7037 12.5165 17.0555 11.4337 17.8963 10.8228C20.756 8.74512 19.2863 4.22189 15.7515 4.22189C14.7123 4.22189 13.7912 3.5527 13.47 2.5643ZM7.71824 2.95057C8.43636 0.740436 11.5631 0.740436 12.2812 2.95057C12.7697 4.454 14.1707 5.47189 15.7515 5.47189C18.0754 5.47189 19.0416 8.4456 17.1616 9.81154C15.8827 10.7407 15.3475 12.3877 15.836 13.8911C16.5541 16.1013 14.0245 17.9391 12.1445 16.5732C10.8656 15.644 9.13385 15.644 7.85496 16.5732C5.97491 17.9391 3.44532 16.1013 4.16344 13.8911C4.65193 12.3877 4.11679 10.7407 2.8379 9.81154C0.957847 8.4456 1.92406 5.47189 4.24793 5.47189C5.82873 5.47189 7.22975 4.454 7.71824 2.95057Z" fill="#32374A"/>
</svg>
