<svg width="21" height="20" viewBox="0 0 21 20" fill="none" xmlns="http://www.w3.org/2000/svg">
<g clip-path="url(#clip0_421_714)">
<path d="M4.02973 8.66111C5.62973 11.8056 8.20195 14.3778 11.352 15.9778L13.7964 13.5278C14.102 13.2222 14.5408 13.1333 14.9242 13.2556C16.1686 13.6667 17.5075 13.8889 18.8908 13.8889C19.5075 13.8889 20.002 14.3833 20.002 15V18.8889C20.002 19.5056 19.5075 20 18.8908 20C8.45751 20 0.00195312 11.5444 0.00195312 1.11111C0.00195312 0.494444 0.501953 0 1.11306 0H5.00195C5.61862 0 6.11306 0.494444 6.11306 1.11111C6.11306 2.49444 6.33529 3.83333 6.7464 5.07778C6.86862 5.46111 6.77973 5.9 6.47418 6.20556L4.02973 8.66111V8.66111Z" fill="#FD8A25"/>
</g>
<defs>
<clipPath id="clip0_421_714">
<rect width="20" height="20" fill="white" transform="translate(0.00195312)"/>
</clipPath>
</defs>
</svg>
