<svg width="20" height="20" viewBox="0 0 20 20" fill="none" xmlns="http://www.w3.org/2000/svg">
<rect width="20" height="20" rx="3.33333" fill="#22E388"/>
<path d="M14.8747 4.72919C13.5934 3.41669 11.8434 2.66669 9.96842 2.66669C6.15592 2.66669 3.03092 5.79169 3.03092 9.60419C3.03092 10.8542 3.37467 12.0417 3.96842 13.0729L2.99967 16.6667L6.65592 15.7292C7.68717 16.2604 8.81217 16.5729 9.96842 16.5729C13.8122 16.5729 16.9997 13.4479 16.9997 9.63544C16.9997 7.76044 16.1872 6.04169 14.8747 4.72919ZM9.96842 15.3854C8.93717 15.3854 7.93717 15.1042 7.03092 14.5729L6.84342 14.4479L4.65592 15.0417L5.24967 12.9167L5.09342 12.6979C4.53092 11.7604 4.21842 10.6979 4.21842 9.60419C4.21842 6.44794 6.81217 3.85419 9.99967 3.85419C11.5309 3.85419 12.9684 4.44794 14.0622 5.54169C15.1559 6.63544 15.8122 8.07294 15.8122 9.63544C15.8122 12.7917 13.1559 15.3854 9.96842 15.3854ZM13.1559 11.0729C12.9684 10.9792 12.1247 10.5729 11.9684 10.5104C11.8122 10.4479 11.6872 10.4167 11.5622 10.6042C11.4684 10.7604 11.1247 11.1667 11.0309 11.2917C10.9059 11.3854 10.8122 11.4167 10.6559 11.3229C9.62467 10.8229 8.96842 10.4167 8.28092 9.26044C8.09342 8.94794 8.46842 8.97919 8.78092 8.32294C8.84342 8.19794 8.81217 8.10419 8.78092 8.01044C8.74967 7.91669 8.37467 7.07294 8.24967 6.72919C8.09342 6.38544 7.96842 6.41669 7.84342 6.41669C7.74967 6.41669 7.62467 6.41669 7.53092 6.41669C7.40592 6.41669 7.21842 6.44794 7.06217 6.63544C6.90592 6.82294 6.46842 7.22919 6.46842 8.07294C6.46842 8.94794 7.06217 9.76044 7.15592 9.88544C7.24967 9.97919 8.37467 11.7292 10.1247 12.4792C11.2184 12.9792 11.6559 13.0104 12.2184 12.9167C12.5309 12.8854 13.2184 12.5104 13.3747 12.1042C13.5309 11.6979 13.5309 11.3542 13.4684 11.2917C13.4372 11.1979 13.3122 11.1667 13.1559 11.0729Z" fill="#F9F9F9"/>
</svg>
