<svg width="20" height="21" viewBox="0 0 20 21" fill="none" xmlns="http://www.w3.org/2000/svg">
<g clip-path="url(#clip0_799_5687)">
<path d="M7.09026 16.4046L6.59902 16.8774L6.59902 16.8774L7.09026 16.4046ZM7.08308 16.3972L6.59446 16.8727L7.08308 16.3972ZM6.43661 16.1221L6.44038 15.4403L6.43661 16.1221ZM13.5637 16.1221L13.56 15.4403L13.5637 16.1221ZM12.9101 16.4046L12.4189 15.9318L12.9101 16.4046ZM12.9173 16.3972L13.4059 16.8727L12.9173 16.3972ZM12.6201 16.7059L13.1114 17.1787L12.6201 16.7059ZM7.38022 16.7059L7.87147 16.2331L7.87146 16.2331L7.38022 16.7059ZM10.0002 18.6242V19.306V18.6242ZM1.81862 11.6257L1.13685 11.6331L1.81862 11.6257ZM6.31476 16.1219L6.3074 16.8036L6.31476 16.1219ZM18.1817 11.6257L18.8635 11.6331L18.1817 11.6257ZM13.6856 16.1219L13.693 16.8036L13.6856 16.1219ZM15.8149 1.8021L15.4882 2.40052L15.8149 1.8021ZM17.626 3.61314L17.0276 3.9399L17.626 3.61314ZM4.18541 1.8021L4.51217 2.40052L4.18541 1.8021ZM2.37436 3.61314L2.97278 3.9399L2.37436 3.61314ZM3.88175 15.3852L3.50898 15.9561L3.88175 15.3852ZM16.1186 15.3852L16.4914 15.9561L16.1186 15.3852ZM12.9547 6.70064C12.9547 8.33239 11.6319 9.65518 10.0002 9.65518V11.0188C12.385 11.0188 14.3184 9.08551 14.3184 6.70064H12.9547ZM10.0002 9.65518C8.36843 9.65518 7.04563 8.33239 7.04563 6.70064H5.682C5.682 9.08551 7.61531 11.0188 10.0002 11.0188V9.65518ZM7.04563 6.70064C7.04563 5.06889 8.36843 3.74609 10.0002 3.74609V2.38246C7.61531 2.38246 5.682 4.31577 5.682 6.70064H7.04563ZM10.0002 3.74609C11.6319 3.74609 12.9547 5.06889 12.9547 6.70064H14.3184C14.3184 4.31577 12.385 2.38246 10.0002 2.38246V3.74609ZM9.25638 1.92791H10.744V0.564276H9.25638V1.92791ZM17.5002 8.68411V11.5142H18.8638V8.68411H17.5002ZM2.50018 11.5142V8.68411H1.13654V11.5142H2.50018ZM12.4189 15.9318L12.1289 16.2331L13.1114 17.1787L13.4013 16.8774L12.4189 15.9318ZM7.87146 16.2331L7.5815 15.9318L6.59902 16.8774L6.88898 17.1787L7.87146 16.2331ZM7.5815 15.9318C7.57849 15.9287 7.57509 15.9251 7.5717 15.9217L6.59446 16.8727C6.59435 16.8726 6.59447 16.8727 6.5952 16.8735C6.59602 16.8743 6.59709 16.8754 6.59902 16.8774L7.5815 15.9318ZM6.42627 16.8039C6.42902 16.8039 6.43056 16.8039 6.43173 16.8039C6.43276 16.8039 6.43295 16.8039 6.43284 16.8039L6.44038 15.4403C6.43554 15.4403 6.43073 15.4403 6.42627 15.4403V16.8039ZM7.5717 15.9217C7.27433 15.6161 6.86675 15.4427 6.44038 15.4403L6.43284 16.8039C6.49375 16.8043 6.55198 16.8291 6.59446 16.8727L7.5717 15.9217ZM13.5741 15.4403C13.5696 15.4403 13.5648 15.4403 13.56 15.4403L13.5675 16.8039C13.5674 16.8039 13.5676 16.8039 13.5686 16.8039C13.5698 16.8039 13.5713 16.8039 13.5741 16.8039V15.4403ZM13.4013 16.8774C13.4053 16.8733 13.4057 16.8729 13.4059 16.8727L12.4287 15.9217C12.4253 15.9251 12.4221 15.9284 12.4189 15.9318L13.4013 16.8774ZM13.56 15.4403C13.1336 15.4427 12.726 15.6161 12.4287 15.9217L13.4059 16.8727C13.4484 16.8291 13.5066 16.8043 13.5675 16.8039L13.56 15.4403ZM12.1289 16.2331C11.4998 16.8867 11.0752 17.3256 10.7158 17.6098C10.3719 17.8817 10.1715 17.9424 10.0002 17.9424V19.306C10.6024 19.306 11.0966 19.0471 11.5615 18.6795C12.0109 18.3242 12.5095 17.804 13.1114 17.1787L12.1289 16.2331ZM6.88898 17.1787C7.49082 17.804 7.98948 18.3242 8.43888 18.6795C8.9038 19.0471 9.39791 19.306 10.0002 19.306V17.9424C9.8289 17.9424 9.6285 17.8817 9.28456 17.6098C8.92511 17.3256 8.50057 16.8867 7.87147 16.2331L6.88898 17.1787ZM1.13654 11.5142C1.13654 11.5704 1.13653 11.604 1.13685 11.6331L2.5004 11.6184C2.50019 11.5984 2.50018 11.574 2.50018 11.5142H1.13654ZM6.42627 15.4403C6.36648 15.4403 6.34203 15.4403 6.32212 15.4401L6.3074 16.8036C6.33654 16.804 6.37008 16.8039 6.42627 16.8039V15.4403ZM17.5002 11.5142C17.5002 11.574 17.5002 11.5984 17.5 11.6184L18.8635 11.6331C18.8638 11.604 18.8638 11.5704 18.8638 11.5142H17.5002ZM13.5741 16.8039C13.6303 16.8039 13.6638 16.804 13.693 16.8036L13.6782 15.4401C13.6583 15.4403 13.6339 15.4403 13.5741 15.4403V16.8039ZM10.744 1.92791C12.1068 1.92791 13.0855 1.92851 13.852 1.99487C14.6098 2.06048 15.0962 2.18648 15.4882 2.40052L16.1417 1.20368C15.5154 0.861718 14.8173 0.709709 13.9696 0.636317C13.1306 0.56368 12.0829 0.564276 10.744 0.564276V1.92791ZM18.8638 8.68411C18.8638 7.34516 18.8644 6.29744 18.7918 5.45848C18.7184 4.6108 18.5664 3.91264 18.2244 3.28638L17.0276 3.9399C17.2416 4.33189 17.3676 4.81831 17.4332 5.5761C17.4996 6.3426 17.5002 7.32125 17.5002 8.68411H18.8638ZM15.4882 2.40052C16.1383 2.75548 16.6726 3.28983 17.0276 3.9399L18.2244 3.28638C17.7442 2.40687 17.0212 1.68393 16.1417 1.20368L15.4882 2.40052ZM9.25638 0.564276C7.91743 0.564276 6.86971 0.56368 6.03074 0.636317C5.18307 0.709709 4.48491 0.861718 3.85865 1.20368L4.51217 2.40052C4.90416 2.18648 5.39057 2.06048 6.14837 1.99487C6.91487 1.92851 7.89351 1.92791 9.25638 1.92791V0.564276ZM2.50018 8.68411C2.50018 7.32124 2.50077 6.3426 2.56714 5.5761C2.63275 4.81831 2.75874 4.33189 2.97278 3.9399L1.77595 3.28638C1.43398 3.91264 1.28197 4.6108 1.20858 5.45848C1.13595 6.29744 1.13654 7.34516 1.13654 8.68411H2.50018ZM3.85865 1.20368C2.97913 1.68393 2.2562 2.40687 1.77595 3.28638L2.97278 3.9399C3.32775 3.28983 3.86209 2.75548 4.51217 2.40052L3.85865 1.20368ZM7.2729 13.7461H12.7274V12.3825H7.2729V13.7461ZM7.2729 12.3825C5.43783 12.3825 3.87173 13.5269 3.24614 15.1385L4.51736 15.6319C4.94615 14.5273 6.01914 13.7461 7.2729 13.7461V12.3825ZM1.13685 11.6331C1.1564 13.4445 2.09664 15.0339 3.50898 15.9561L4.25452 14.8143C3.2078 14.1309 2.51484 12.9561 2.5004 11.6184L1.13685 11.6331ZM3.50898 15.9561C4.31526 16.4826 5.27632 16.7925 6.3074 16.8036L6.32212 15.4401C5.55838 15.4318 4.84972 15.203 4.25452 14.8143L3.50898 15.9561ZM12.7274 13.7461C13.9812 13.7461 15.0542 14.5273 15.483 15.6319L16.7542 15.1385C16.1286 13.5269 14.5625 12.3825 12.7274 12.3825V13.7461ZM17.5 11.6184C17.4855 12.9561 16.7926 14.1309 15.7458 14.8143L16.4914 15.9561C17.9037 15.0339 18.844 13.4445 18.8635 11.6331L17.5 11.6184ZM15.7458 14.8143C15.1506 15.203 14.442 15.4318 13.6782 15.4401L13.693 16.8036C14.724 16.7925 15.6851 16.4826 16.4914 15.9561L15.7458 14.8143Z" fill="#32374A"/>
</g>
<defs>
<clipPath id="clip0_799_5687">
<rect width="20" height="20" fill="white" transform="translate(0 0.335938)"/>
</clipPath>
</defs>
</svg>
